<?xml version="1.0" encoding="UTF-8" standalone="no"?>
<!-- Created with Inkscape (http://www.inkscape.org/) -->

<svg
   version="1.1"
   id="svg2"
   xml:space="preserve"
   width="655.84601"
   height="290.97141"
   viewBox="0 0 655.84601 290.9714"
   xmlns="http://www.w3.org/2000/svg"
   xmlns:svg="http://www.w3.org/2000/svg"><defs
     id="defs6"><clipPath
       clipPathUnits="userSpaceOnUse"
       id="clipPath16"><path
         d="M 0,418.614 V 211.201 h 509.658 l -21.766,207.413 z"
         id="path14" /></clipPath><clipPath
       clipPathUnits="userSpaceOnUse"
       id="clipPath34"><path
         d="M 0,792 H 612 V 0 H 0 Z"
         id="path32" /></clipPath><linearGradient
       x1="0"
       y1="0"
       x2="1"
       y2="0"
       gradientUnits="userSpaceOnUse"
       gradientTransform="matrix(20.085659,66.222275,-66.222275,20.085659,101.73528,529.15625)"
       spreadMethod="pad"
       id="linearGradient76"><stop
         style="stop-opacity:1;stop-color:#1784eb"
         offset="0"
         id="stop72" /><stop
         style="stop-opacity:1;stop-color:#2dd3fc"
         offset="1"
         id="stop74" /></linearGradient><clipPath
       clipPathUnits="userSpaceOnUse"
       id="clipPath86"><path
         d="M 0,792 H 612 V 0 H 0 Z"
         id="path84" /></clipPath><linearGradient
       x1="0"
       y1="0"
       x2="1"
       y2="0"
       gradientUnits="userSpaceOnUse"
       gradientTransform="matrix(20.563883,67.799591,-67.799591,20.563883,140.01534,544.83563)"
       spreadMethod="pad"
       id="linearGradient108"><stop
         style="stop-opacity:1;stop-color:#1784eb"
         offset="0"
         id="stop104" /><stop
         style="stop-opacity:1;stop-color:#2dd3fc"
         offset="1"
         id="stop106" /></linearGradient><clipPath
       clipPathUnits="userSpaceOnUse"
       id="clipPath118"><path
         d="M 0,792 H 612 V 0 H 0 Z"
         id="path116" /></clipPath><linearGradient
       x1="0"
       y1="0"
       x2="1"
       y2="0"
       gradientUnits="userSpaceOnUse"
       gradientTransform="matrix(17.2165,-97.6837,-97.6837,-17.2165,-8.6142,792.2546)"
       spreadMethod="pad"
       id="linearGradient126"><stop
         style="stop-opacity:1;stop-color:#1784eb"
         offset="0"
         id="stop122" /><stop
         style="stop-opacity:1;stop-color:#2dd3fc"
         offset="1"
         id="stop124" /></linearGradient><clipPath
       clipPathUnits="userSpaceOnUse"
       id="clipPath140"><path
         d="m 103.165,608.315 c -0.278,-0.17 -0.366,-0.531 -0.197,-0.81 v 0 c 0.169,-0.278 0.532,-0.366 0.81,-0.197 v 0 c 6.954,4.24 14.989,6.373 23.131,6.141 v 0 c 0.274,0.033 0.489,0.248 0.521,0.521 v 0 c 0.039,0.327 -0.194,0.624 -0.521,0.663 v 0 c -0.386,0.01 -0.771,0.015 -1.156,0.015 v 0 c -7.96,0 -15.775,-2.187 -22.588,-6.333 m 16.73,2.827 c -5.842,-0.846 -11.428,-2.965 -16.361,-6.209 v 0 c -0.271,-0.178 -0.345,-0.542 -0.167,-0.813 v 0 c 0.178,-0.271 0.543,-0.347 0.813,-0.168 v 0 c 4.79,3.146 10.212,5.202 15.883,6.024 v 0 c 0.322,0.047 0.545,0.345 0.499,0.667 v 0 c -0.042,0.294 -0.294,0.505 -0.583,0.505 v 0 c -0.027,0 -0.055,-0.002 -0.084,-0.006 m 24.152,-1.175 c -0.145,-0.291 -0.027,-0.644 0.263,-0.789 v 0 h -0.017 c 12.993,-6.351 21.85,-18.889 23.492,-33.257 v 0 c 0.035,-0.324 0.326,-0.559 0.651,-0.525 v 0 c 0.324,0.035 0.559,0.327 0.524,0.651 v 0 c -1.681,14.77 -10.783,27.661 -24.138,34.189 v 0 c -0.081,0.038 -0.166,0.056 -0.249,0.056 v 0 c -0.216,0 -0.423,-0.12 -0.526,-0.325 m -7.166,-0.582 c -0.095,-0.311 0.079,-0.639 0.39,-0.735 v 0 l -0.034,0.043 c 8.704,-2.696 16.201,-8.331 21.21,-15.941 v 0 c 0.179,-0.272 0.543,-0.347 0.814,-0.169 v 0 c 0.271,0.179 0.346,0.543 0.168,0.814 v 0 c -5.161,7.816 -12.869,13.603 -21.814,16.377 v 0 c -0.058,0.018 -0.116,0.026 -0.173,0.026 v 0 c -0.252,0 -0.484,-0.162 -0.561,-0.415 m -13.613,-1.003 c -2.219,-0.141 -4.42,-0.481 -6.578,-1.015 v 0 c -0.315,-0.079 -0.506,-0.398 -0.428,-0.714 v 0 c 0.079,-0.315 0.399,-0.507 0.714,-0.427 v 0 c 2.088,0.519 4.22,0.847 6.367,0.981 v 0 c 0.325,0.021 0.571,0.301 0.55,0.625 v 0 c -0.02,0.312 -0.279,0.551 -0.587,0.551 v 0 c -0.013,0 -0.026,0 -0.038,-0.001 m 9.242,-1.137 c -0.063,-0.32 0.146,-0.63 0.465,-0.692 v 0 c 8.399,-1.674 15.91,-6.325 21.151,-13.097 v 0 c 5.301,-6.941 8.018,-15.512 7.686,-24.238 v 0 c 0,-0.325 0.263,-0.588 0.587,-0.588 v 0 c 0.325,0 0.587,0.263 0.587,0.588 v 0 c 0.351,8.992 -2.44,17.826 -7.894,24.984 v 0 c -5.425,7.002 -13.201,11.8 -21.89,13.509 v 0 c -0.039,0.007 -0.077,0.011 -0.115,0.011 v 0 c -0.276,0 -0.523,-0.196 -0.577,-0.477 m -8.017,-1.892 c -0.324,0 -0.587,-0.263 -0.587,-0.587 v 0 c 0,-0.324 0.263,-0.588 0.587,-0.588 v 0 c 10.03,0.391 19.693,-3.802 26.261,-11.393 v 0 c 0.181,-0.121 0.415,-0.13 0.605,-0.025 v 0 c 0.285,0.155 0.389,0.512 0.233,0.796 v 0 c -6.502,7.521 -15.939,11.82 -25.839,11.82 v 0 c -0.419,0 -0.84,-0.008 -1.26,-0.023 m -28.543,-2.45 c -3.793,-3.561 -6.918,-7.772 -9.229,-12.434 v 0 c -0.144,-0.292 -0.023,-0.645 0.269,-0.788 v 0 c 0.291,-0.144 0.645,-0.024 0.788,0.268 v 0 c 2.256,4.544 5.308,8.647 9.011,12.115 v 0 c 0.232,0.232 0.232,0.608 0,0.839 v 0 c -0.116,0.116 -0.268,0.174 -0.419,0.174 v 0 c -0.152,0 -0.304,-0.058 -0.42,-0.174 m 26.647,-0.772 c -0.292,-0.048 -0.501,-0.305 -0.49,-0.6 v 0 c 0.011,-0.324 0.283,-0.578 0.607,-0.566 v 0 c 8.873,0.881 17.679,-2.23 24.029,-8.491 v 0 c 0.232,-0.232 0.608,-0.232 0.839,0 v 0 c 0.232,0.232 0.232,0.608 0,0.839 v 0 c -5.853,5.779 -13.721,8.976 -21.863,8.975 v 0 c -1.037,0 -2.08,-0.051 -3.122,-0.157 m -25.053,-1.997 c -1.99,-1.934 -3.775,-4.068 -5.327,-6.368 v 0 c -0.153,-0.257 -0.088,-0.588 0.15,-0.769 v 0 c 0.259,-0.195 0.627,-0.144 0.823,0.115 v 0 l 0.008,0.009 c 1.512,2.23 3.25,4.3 5.185,6.175 v 0 c 0.232,0.231 0.232,0.607 0,0.838 v 0 c -0.116,0.116 -0.267,0.174 -0.419,0.174 v 0 c -0.152,0 -0.304,-0.058 -0.42,-0.174 m 27.956,-0.939 c -0.324,0 -0.588,-0.263 -0.588,-0.588 v 0 c 0,-0.324 0.264,-0.587 0.588,-0.587 v 0 c 8.867,0.07 17.198,-4.245 22.258,-11.528 v 0 c 0.188,-0.266 0.556,-0.33 0.822,-0.142 v 0 c 0.267,0.187 0.33,0.555 0.143,0.822 v 0 c -5.242,7.535 -13.839,12.024 -23.01,12.024 v 0 c -0.071,0 -0.142,-10e-4 -0.213,-10e-4 m 0.982,-3.65 c -0.019,-0.325 0.229,-0.602 0.553,-0.621 v 0 l 0.008,-0.033 c 6.184,-0.338 11.992,-3.077 16.185,-7.636 v 0 c 0.231,-0.231 0.607,-0.231 0.839,0 v 0 c 0.232,0.233 0.232,0.608 0,0.84 v 0 c -4.396,4.777 -10.483,7.649 -16.964,8.004 v 0 c -0.012,0 -0.024,10e-4 -0.035,10e-4 v 0 c -0.31,0 -0.569,-0.242 -0.586,-0.555 m -4.43,-2.836 c -0.322,-0.053 -0.54,-0.357 -0.487,-0.679 v 0 c 0.053,-0.322 0.357,-0.54 0.679,-0.487 v 0 c 2.706,0.453 5.473,0.37 8.147,-0.243 v 0 c 0.318,-0.072 0.633,0.127 0.705,0.445 v 0 c 0.072,0.317 -0.127,0.632 -0.445,0.704 v 0 c -1.63,0.374 -3.292,0.562 -4.956,0.562 v 0 c -1.218,0 -2.437,-0.1 -3.643,-0.302 m 11.17,-1.64 c -0.122,-0.301 0.022,-0.645 0.324,-0.768 v 0 l -0.018,-0.016 c 0.495,-0.185 0.899,-0.386 1.335,-0.596 v 0 c 0.296,-0.149 0.657,-0.028 0.806,0.268 v 0 c 0.147,0.297 0.028,0.657 -0.269,0.806 v 0 c -0.47,0.227 -0.932,0.436 -1.41,0.629 v 0 c -0.073,0.03 -0.148,0.044 -0.222,0.044 v 0 c -0.232,0 -0.452,-0.139 -0.546,-0.367 m 15.577,0.147 c -0.25,-0.208 -0.285,-0.58 -0.076,-0.83 v 0 c 4.192,-4.989 6.639,-11.213 6.963,-17.721 v 0 c 0.017,-0.324 0.293,-0.574 0.618,-0.558 v 0 c 0.324,0.017 0.574,0.293 0.557,0.617 v 0 c -0.338,6.763 -2.877,13.231 -7.231,18.417 v 0 c -0.117,0.14 -0.285,0.212 -0.454,0.212 v 0 c -0.133,0 -0.267,-0.045 -0.377,-0.137 m 4.467,-0.751 c -0.269,-0.183 -0.338,-0.549 -0.155,-0.818 v 0 c 4.401,-6.504 6.339,-14.363 5.471,-22.166 v 0 c -0.035,-0.324 0.2,-0.616 0.524,-0.651 v 0 c 0.324,-0.034 0.615,0.201 0.65,0.525 v 0 c 0.892,8.082 -1.118,16.218 -5.671,22.955 v 0 c -0.115,0.167 -0.3,0.257 -0.488,0.257 v 0 c -0.114,0 -0.229,-0.033 -0.331,-0.102 m -31.743,-1.011 c -0.317,-0.072 -0.517,-0.388 -0.445,-0.705 v 0 c 0.072,-0.317 0.388,-0.516 0.705,-0.444 v 0 c 2.087,0.47 4.24,0.56 6.36,0.268 v 0 c 0.321,-0.044 0.618,0.182 0.662,0.503 v 0 c 0.044,0.322 -0.182,0.619 -0.503,0.663 v 0 c -0.865,0.12 -1.735,0.18 -2.604,0.18 v 0 c -1.402,0 -2.802,-0.156 -4.175,-0.465 m 15.35,-0.116 c -0.199,-0.257 -0.152,-0.626 0.104,-0.824 v 0 h 0.026 c 0.603,-0.436 1.191,-0.822 1.753,-1.275 v 0 c 0.253,-0.204 0.622,-0.165 0.826,0.088 v 0 c 0.204,0.252 0.165,0.622 -0.088,0.827 v 0 c -0.601,0.481 -1.229,0.929 -1.879,1.341 v 0 c -0.088,0.048 -0.184,0.071 -0.278,0.071 v 0 c -0.176,0 -0.35,-0.08 -0.464,-0.228 m -5.442,-0.916 c -0.111,-0.306 0.047,-0.644 0.352,-0.755 v 0 0.034 c 4.187,-1.547 7.631,-4.624 9.637,-8.611 v 0 c 4.372,-8.693 0.869,-19.285 -7.824,-23.658 v 0 c -0.292,-0.146 -0.41,-0.5 -0.265,-0.793 v 0 c 0.146,-0.291 0.502,-0.41 0.793,-0.263 v 0 c 4.235,2.137 7.504,5.797 9.153,10.244 v 0 c 3.607,9.733 -1.358,20.547 -11.09,24.155 v 0 c -0.067,0.024 -0.135,0.035 -0.201,0.035 v 0 c -0.241,0 -0.468,-0.149 -0.555,-0.388 m 30.824,-1.336 c -0.305,-0.111 -0.462,-0.448 -0.351,-0.753 v 0 c 1.939,-4.618 2.976,-9.565 3.053,-14.574 v 0 c 0.034,-0.272 0.249,-0.488 0.522,-0.521 v 0 c 0.326,-0.039 0.623,0.194 0.662,0.521 v 0 c -0.078,5.165 -1.149,10.267 -3.155,15.027 v 0 c -0.1,0.21 -0.31,0.336 -0.531,0.336 v 0 c -0.066,0 -0.134,-0.012 -0.2,-0.036 m -41.219,-0.971 c -0.31,-0.095 -0.485,-0.424 -0.39,-0.734 v 0 c 0.095,-0.311 0.424,-0.485 0.734,-0.391 v 0 c 1.53,0.479 3.13,0.698 4.733,0.646 v 0 c 4.586,-0.129 8.841,-2.42 11.474,-6.178 v 0 c 4.601,-6.564 3.01,-15.615 -3.554,-20.216 v 0 c -0.267,-0.185 -0.333,-0.552 -0.147,-0.818 v 0 c 0.185,-0.267 0.551,-0.332 0.818,-0.148 v 0 c 5.612,3.918 8.037,11.022 5.992,17.554 v 0 c -2.1,6.71 -8.29,11.006 -14.968,11.006 v 0 c -1.552,0 -3.132,-0.233 -4.692,-0.721 m 21.253,-1.516 c -0.267,-0.184 -0.336,-0.549 -0.152,-0.817 v 0 -0.033 c 0.768,-1.004 1.443,-2.076 2.015,-3.203 v 0 c 5.18,-10.195 1.116,-22.659 -9.079,-27.841 v 0 c -0.245,-0.152 -0.343,-0.459 -0.231,-0.724 v 0 c 0.125,-0.299 0.469,-0.44 0.767,-0.315 v 0 c 1.209,0.612 2.357,1.335 3.432,2.16 v 0 c 9.581,7.357 11.384,21.089 4.027,30.669 v 0 c -0.115,0.136 -0.28,0.207 -0.447,0.207 v 0 c -0.115,0 -0.23,-0.034 -0.332,-0.103 m -28.485,-9.35 c -0.104,-0.307 0.061,-0.642 0.369,-0.746 v 0 c 0.308,-0.104 0.643,0.061 0.747,0.369 v 0 c 0.951,2.745 2.913,5.025 5.487,6.374 v 0 c 5.585,2.929 12.486,0.775 15.415,-4.81 v 0 c 2.928,-5.585 0.775,-12.487 -4.81,-15.416 v 0 c -0.288,-0.15 -0.399,-0.505 -0.247,-0.793 v 0 c 0.15,-0.287 0.505,-0.397 0.792,-0.247 v 0 c 2.82,1.486 4.971,3.987 6.019,6.997 v 0 c 2.284,6.564 -1.185,13.738 -7.75,16.022 v 0 c -1.369,0.477 -2.765,0.703 -4.137,0.703 v 0 c -5.207,0 -10.077,-3.257 -11.885,-8.453 m 36.543,8.068 c -0.295,-0.14 -0.421,-0.491 -0.282,-0.785 v 0 c 0.371,-0.794 0.703,-1.605 0.994,-2.431 v 0 c 4.943,-14.014 -2.409,-29.382 -16.423,-34.326 v 0 c -0.307,-0.106 -0.471,-0.443 -0.365,-0.75 v 0 c 0.107,-0.308 0.443,-0.472 0.751,-0.365 v 0 c 0.864,0.304 1.713,0.651 2.543,1.039 v 0 c 14.056,6.564 20.13,23.28 13.566,37.336 v 0 c -0.101,0.213 -0.312,0.338 -0.533,0.338 v 0 c -0.085,0 -0.17,-0.018 -0.251,-0.056 m -3.402,-0.181 c -0.288,-0.153 -0.397,-0.509 -0.244,-0.796 v 0 c 0.144,-0.271 0.283,-0.545 0.417,-0.821 v 0 c 5.731,-11.842 0.777,-26.086 -11.064,-31.817 v 0 c -0.285,-0.142 -0.404,-0.486 -0.269,-0.775 v 0 c 0.138,-0.293 0.488,-0.42 0.781,-0.282 v 0 c 0.296,0.144 0.59,0.292 0.879,0.447 v 0 c 12.177,6.491 16.787,21.624 10.296,33.801 v 0 c -0.106,0.199 -0.309,0.312 -0.52,0.312 v 0 c -0.093,0 -0.188,-0.022 -0.276,-0.069 m -27.565,-4.935 c -3.898,-3.525 -4.201,-9.541 -0.676,-13.438 v 0 c 0.192,-0.138 0.449,-0.145 0.65,-0.021 v 0 c 0.275,0.171 0.36,0.534 0.188,0.809 v 0 h 0.009 c -1.437,1.588 -2.206,3.667 -2.149,5.807 v 0 c 0.123,4.595 3.948,8.22 8.542,8.098 v 0 c 4.596,-0.123 8.221,-3.947 8.098,-8.543 v 0 c -0.123,-4.595 -3.947,-8.22 -8.542,-8.097 v 0 c -0.273,-0.032 -0.489,-0.248 -0.521,-0.521 v 0 c -0.039,-0.327 0.194,-0.623 0.521,-0.663 v 0 c 2.447,-0.066 4.826,0.812 6.642,2.455 v 0 c 3.897,3.523 4.2,9.54 0.675,13.438 v 0 c -1.878,2.077 -4.463,3.133 -7.059,3.133 v 0 c -2.275,0 -4.558,-0.812 -6.378,-2.457 m -0.106,-6.886 c -0.096,-3.537 2.692,-6.483 6.229,-6.581 v 0 c 3.539,-0.099 6.487,2.69 6.586,6.229 v 0 c 0.098,3.538 -2.69,6.487 -6.228,6.586 v 0 h 0.033 c -0.007,0 -0.015,0 -0.023,0 v 0 c -0.062,0.002 -0.124,0.003 -0.186,0.003 v 0 c -3.46,-10e-4 -6.313,-2.756 -6.411,-6.237 m 6.288,-5.416 c -2.89,0.082 -5.166,2.492 -5.084,5.382 v 0 c 0.082,2.891 2.493,5.167 5.383,5.084 v 0 c 2.885,-0.081 5.159,-2.484 5.084,-5.369 v 0 c 0,-0.005 0,-0.009 0,-0.013 v 0 c -0.082,-2.839 -2.408,-5.086 -5.231,-5.086 v 0 c -0.05,0 -0.101,10e-4 -0.152,0.002 m -43.33,8.663 v -1.444 c 0,-0.324 0.263,-0.587 0.588,-0.587 v 0 c 0.324,0 0.587,0.263 0.587,0.587 v 0 l 0.009,0.025 v 1.419 c -0.033,0.272 -0.249,0.488 -0.521,0.521 v 0 c -0.024,0.003 -0.048,0.004 -0.071,0.004 v 0 c -0.298,0 -0.555,-0.222 -0.592,-0.525 m 40.164,-3.331 c -0.002,-0.047 -0.003,-0.094 -0.003,-0.141 v 0 c 0.003,-1.853 1.508,-3.353 3.361,-3.349 v 0 c 1.853,0.002 3.354,1.508 3.351,3.361 v 0 c -0.004,1.854 -1.508,3.354 -3.362,3.351 v 0 l 0.067,0.008 c -0.021,0 -0.041,10e-4 -0.062,10e-4 v 0 c -1.8,-10e-4 -3.285,-1.425 -3.352,-3.231 m 3.23,-2.232 c -1.182,0.032 -2.114,1.017 -2.081,2.199 v 0 c 0.032,1.181 1.016,2.113 2.198,2.08 v 0 c 1.18,-0.037 2.109,-1.018 2.08,-2.198 v 0 c -0.035,-1.163 -0.989,-2.082 -2.146,-2.082 v 0 c -0.017,0 -0.034,0 -0.051,10e-4 m -43.377,-0.126 c 0.57,-11.263 5.498,-21.863 13.743,-29.558 v 0 c 0.231,-0.231 0.608,-0.231 0.839,0 v 0 c 0.231,0.232 0.231,0.608 0,0.839 v 0 h 0.025 c -8.049,7.48 -12.865,17.804 -13.424,28.778 v 0 c -0.043,0.277 -0.274,0.485 -0.554,0.502 v 0 c -0.011,0 -0.023,10e-4 -0.034,10e-4 v 0 c -0.314,0 -0.577,-0.245 -0.595,-0.562 m 73.329,-0.268 c -1.026,-12.11 -9.26,-22.402 -20.85,-26.06 v 0 c -0.31,-0.097 -0.482,-0.427 -0.385,-0.738 v 0 c 0.097,-0.31 0.427,-0.483 0.738,-0.386 v 0 c 12.049,3.801 20.61,14.502 21.671,27.092 v 0 c 0.026,0.324 -0.217,0.607 -0.541,0.633 v 0 c -0.016,0.001 -0.032,0.002 -0.048,0.002 v 0 c -0.303,-10e-4 -0.561,-0.235 -0.585,-0.543 m -69.621,-0.327 c -0.324,-0.028 -0.564,-0.314 -0.536,-0.638 v 0 c 0.858,-9.906 5.339,-19.149 12.585,-25.959 v 0 c 0.232,-0.231 0.607,-0.231 0.838,0 v 0 c 0.233,0.232 0.233,0.608 0,0.839 v 0 l -0.016,0.05 c -7.035,6.6 -11.39,15.561 -12.233,25.171 v 0 c -0.026,0.307 -0.284,0.539 -0.588,0.539 v 0 c -0.016,0 -0.033,-10e-4 -0.05,-0.002 m 75.712,-1.595 c -0.21,-1.955 -0.586,-3.889 -1.124,-5.781 v 0 c -0.049,-0.274 0.102,-0.545 0.361,-0.648 v 0 c 0.302,-0.119 0.643,0.028 0.763,0.33 v 0 c 0.562,1.954 0.956,3.953 1.174,5.974 v 0 c 0.035,0.324 -0.2,0.615 -0.523,0.65 v 0 c -0.022,0.002 -0.044,0.003 -0.065,0.003 v 0 c -0.298,0 -0.553,-0.225 -0.586,-0.528 M 89.322,565.987 C 89,565.939 88.779,565.638 88.827,565.316 v 0 c 1.248,-7.963 5.042,-15.307 10.815,-20.933 v 0 c 0.231,-0.232 0.607,-0.232 0.838,0 v 0 c 0.233,0.231 0.233,0.607 0,0.839 v 0 c -5.597,5.444 -9.277,12.557 -10.487,20.27 v 0 c -0.044,0.292 -0.296,0.502 -0.582,0.502 v 0 c -0.029,0 -0.059,-0.002 -0.089,-0.007 m 68.915,-0.855 c -2.205,-11.887 -10.711,-21.627 -22.191,-25.414 v 0 c -0.308,-0.102 -0.475,-0.434 -0.374,-0.742 v 0 c 0.102,-0.309 0.435,-0.475 0.743,-0.374 v 0 c 11.892,3.917 20.702,14.007 22.98,26.32 v 0 c 0.058,0.319 -0.154,0.625 -0.474,0.683 v 0 c -0.036,0.007 -0.071,0.01 -0.106,0.01 v 0 c -0.279,0 -0.526,-0.2 -0.578,-0.483 m -63.957,-6.05 c -0.301,-0.12 -0.447,-0.462 -0.327,-0.763 v 0 c 1.402,-3.466 3.36,-6.68 5.798,-9.514 v 0 c 0.203,-0.19 0.511,-0.213 0.741,-0.056 v 0 c 0.272,0.185 0.341,0.555 0.157,0.827 v 0 c -2.357,2.733 -4.251,5.834 -5.605,9.179 v 0 c -0.092,0.229 -0.312,0.369 -0.546,0.369 v 0 c -0.072,0 -0.146,-0.014 -0.218,-0.042 m 4.462,-2.185 c -0.3,-0.125 -0.441,-0.468 -0.317,-0.768 v 0 c 0.928,-1.712 2.015,-3.333 3.247,-4.841 v 0 c 0.209,-0.25 0.581,-0.285 0.831,-0.076 v 0 c 0.25,0.209 0.283,0.581 0.075,0.831 v 0 c -1.185,1.449 -2.232,3.005 -3.129,4.648 v 0 c -0.113,0.161 -0.294,0.251 -0.482,0.251 v 0 c -0.075,0 -0.152,-0.015 -0.225,-0.045 m 56.089,-7.388 V 549.5 c -4.591,-6.066 -10.953,-10.557 -18.207,-12.853 v 0 c -0.31,-0.097 -0.483,-0.428 -0.386,-0.738 v 0 c 0.099,-0.31 0.429,-0.483 0.739,-0.386 v 0 c 7.488,2.37 14.056,7.009 18.794,13.273 v 0 c 0.196,0.26 0.146,0.63 -0.113,0.827 v 0 c -0.107,0.08 -0.232,0.119 -0.357,0.119 v 0 c -0.178,0 -0.354,-0.08 -0.47,-0.233 m -5.328,-9.606 v -0.025 c -3.519,-2.68 -7.464,-4.747 -11.67,-6.117 v 0 c -0.251,-0.116 -0.389,-0.389 -0.334,-0.659 v 0 c 0.066,-0.323 0.381,-0.531 0.703,-0.465 v 0 c 4.333,1.421 8.394,3.563 12.014,6.334 v 0 c 0.229,0.196 0.274,0.531 0.104,0.78 v 0 c -0.114,0.166 -0.298,0.255 -0.485,0.255 v 0 c -0.115,0 -0.23,-0.034 -0.332,-0.103"
         id="path138" /></clipPath><radialGradient
       fx="0"
       fy="0"
       cx="0"
       cy="0"
       r="1"
       gradientUnits="userSpaceOnUse"
       gradientTransform="matrix(42.085281,-1.1534957,1.1534957,42.085281,125.55807,573.81866)"
       spreadMethod="pad"
       id="radialGradient156"><stop
         style="stop-opacity:1;stop-color:#ffffff"
         offset="0"
         id="stop150" /><stop
         style="stop-opacity:1;stop-color:#ffffff"
         offset="0.2"
         id="stop152" /><stop
         style="stop-opacity:0.50000763;stop-color:#ffffff"
         offset="1"
         id="stop154" /></radialGradient><mask
       maskUnits="userSpaceOnUse"
       x="0"
       y="0"
       width="1"
       height="1"
       id="mask158"><g
         id="g168"><g
           id="g166"><g
             id="g164"><g
               id="g162"><path
                 d="M -32768,32767 H 32767 V -32768 H -32768 Z"
                 style="fill:url(#radialGradient156);stroke:none"
                 id="path160" /></g></g></g></g></mask><radialGradient
       fx="0"
       fy="0"
       cx="0"
       cy="0"
       r="1"
       gradientUnits="userSpaceOnUse"
       gradientTransform="matrix(42.085281,-1.1534957,1.1534957,42.085281,125.55807,573.81866)"
       spreadMethod="pad"
       id="radialGradient180"><stop
         style="stop-opacity:1;stop-color:#29f2a1"
         offset="0"
         id="stop174" /><stop
         style="stop-opacity:1;stop-color:#29f2a1"
         offset="0.2"
         id="stop176" /><stop
         style="stop-opacity:1;stop-color:#00b2f4"
         offset="1"
         id="stop178" /></radialGradient><clipPath
       clipPathUnits="userSpaceOnUse"
       id="clipPath190"><path
         d="M 0,792 H 612 V 0 H 0 Z"
         id="path188" /></clipPath><linearGradient
       x1="0"
       y1="0"
       x2="1"
       y2="0"
       gradientUnits="userSpaceOnUse"
       gradientTransform="matrix(27.3775,-90.2396,-90.2396,-27.3775,-27.5113,809.4874)"
       spreadMethod="pad"
       id="linearGradient200"><stop
         style="stop-opacity:1;stop-color:#1784eb"
         offset="0"
         id="stop194" /><stop
         style="stop-opacity:1;stop-color:#1784eb"
         offset="0.28"
         id="stop196" /><stop
         style="stop-opacity:1;stop-color:#2dd3fc"
         offset="1"
         id="stop198" /></linearGradient><linearGradient
       x1="0"
       y1="0"
       x2="1"
       y2="0"
       gradientUnits="userSpaceOnUse"
       gradientTransform="matrix(36.328713,119.75047,-119.75047,36.328713,82.586624,507.9949)"
       spreadMethod="pad"
       id="linearGradient220"><stop
         style="stop-opacity:1;stop-color:#1784eb"
         offset="0"
         id="stop216" /><stop
         style="stop-opacity:1;stop-color:#2dd3fc"
         offset="1"
         id="stop218" /></linearGradient><clipPath
       clipPathUnits="userSpaceOnUse"
       id="clipPath230"><path
         d="M 0,792 H 612 V 0 H 0 Z"
         id="path228" /></clipPath><clipPath
       clipPathUnits="userSpaceOnUse"
       id="clipPath300"><path
         d="m 125.483,135.429 5.335,-4.708 2.928,4.061 -6.117,4.703 z"
         id="path298" /></clipPath><clipPath
       clipPathUnits="userSpaceOnUse"
       id="clipPath312"><path
         d="M 0,792 H 612 V 0 H 0 Z"
         id="path310" /></clipPath><clipPath
       clipPathUnits="userSpaceOnUse"
       id="clipPath402"><path
         d="m 141.267,344.59 7.085,-6.253 3.889,5.394 -8.125,6.247 z"
         id="path400" /></clipPath><clipPath
       clipPathUnits="userSpaceOnUse"
       id="clipPath414"><path
         d="M 0,792 H 612 V 0 H 0 Z"
         id="path412" /></clipPath><clipPath
       clipPathUnits="userSpaceOnUse"
       id="clipPath484"><path
         d="M 0,792 H 612 V 0 H 0 Z"
         id="path482" /></clipPath></defs><g
     id="g8"
     transform="matrix(1.3333333,0,0,-1.3333333,-51.865597,906.9531)"><g
       id="g2207"><g
         id="g2140"><g
           id="g44"
           transform="translate(247.1097,543.2128)"><path
             d="m 0,0 c 0,5.997 -4.277,10.963 -10.471,10.963 -6.146,0 -10.275,-4.916 -10.275,-11.061 0,-6.146 4.129,-11.111 10.275,-11.111 C -4.277,-11.209 0,-6.145 0,0 m 2.605,13.027 v -26.3 h -2.851 v 5.112 c -2.212,-3.588 -5.9,-5.752 -10.373,-5.752 -7.522,0 -13.077,6.096 -13.077,13.913 0,7.817 5.555,13.667 13.077,13.667 4.473,0 8.161,-2.164 10.373,-5.703 v 5.063 z"
             style="fill:#44c68b;fill-opacity:1;fill-rule:nonzero;stroke:none"
             id="path46" /></g><g
           id="g48"
           transform="translate(279.6541,543.4587)"><path
             d="m 0,0 c 0,5.997 -4.424,10.717 -10.471,10.717 -5.998,0 -10.275,-4.67 -10.275,-10.815 0,-6.096 4.277,-10.816 10.275,-10.816 C -4.424,-10.914 0,-6.096 0,0 m 2.703,12.781 v -23.99 c 0,-8.308 -5.259,-13.469 -13.617,-13.469 -4.375,0 -8.161,1.425 -11.307,3.736 l 1.524,2.359 c 2.852,-2.163 6.244,-3.391 9.832,-3.391 6.588,0 10.619,4.08 10.619,10.471 v 3.391 c -2.212,-3.441 -5.948,-5.505 -10.324,-5.505 -7.521,0 -13.126,5.948 -13.126,13.519 0,7.619 5.703,13.519 13.175,13.519 4.375,0 8.063,-2.016 10.275,-5.359 v 4.719 z"
             style="fill:#44c68b;fill-opacity:1;fill-rule:nonzero;stroke:none"
             id="path50" /></g><g
           id="g52"
           transform="translate(290.3225,556.2402)"><path
             d="m 0,0 h 2.802 v -4.228 c 1.475,3.392 4.129,4.916 7.62,4.916 0.983,0 2.114,-0.147 3.245,-0.442 l -0.344,-2.802 c -0.934,0.294 -1.868,0.442 -2.802,0.442 -4.966,0 -7.571,-3.982 -7.571,-9.193 V -26.301 H 0 Z"
             style="fill:#44c68b;fill-opacity:1;fill-rule:nonzero;stroke:none"
             id="path54" /></g><g
           id="g56"
           transform="translate(329.2577,543.1146)"><path
             d="m 0,0 c 0,6.145 -4.523,11.061 -10.717,11.061 -6.145,0 -10.717,-4.916 -10.717,-11.061 0,-6.194 4.572,-11.11 10.717,-11.11 C -4.523,-11.11 0,-6.194 0,0 m -24.384,0 c 0,7.669 5.752,13.765 13.667,13.765 7.915,0 13.666,-6.096 13.666,-13.765 0,-7.718 -5.751,-13.814 -13.666,-13.814 -7.915,0 -13.667,6.096 -13.667,13.814"
             style="fill:#44c68b;fill-opacity:1;fill-rule:nonzero;stroke:none"
             id="path58" /></g></g><g
         id="g60"><g
           id="g62"><g
             id="g68"><g
               id="g70"><path
                 d="m 90.303,512.157 c 0,-3.466 2.81,-6.276 6.276,-6.276 v 0 c 3.466,0 6.276,2.81 6.276,6.276 v 0 c 0,3.466 -2.81,6.275 -6.276,6.275 v 0 c -3.466,0 -6.276,-2.809 -6.276,-6.275"
                 style="fill:url(#linearGradient76);stroke:none"
                 id="path78" /></g></g></g></g><g
         id="g80"><g
           id="g82"
           clip-path="url(#clipPath86)"><g
             id="g88"
             transform="translate(125.4912,625.0695)"><path
               d="M 0,0 C 8.7,12.115 17.552,18.458 24.465,16.193 32.251,13.676 35.817,0.906 34.307,-18.861"
               style="fill:none;stroke:#39cefb;stroke-width:2;stroke-linecap:round;stroke-linejoin:miter;stroke-miterlimit:10;stroke-dasharray:none;stroke-opacity:1"
               id="path90" /></g></g></g><g
         id="g92"><g
           id="g94"><g
             id="g100"><g
               id="g102"><path
                 d="m 155.536,609.563 6.479,-5.718 c 0.677,0.763 1.088,1.767 1.088,2.867 v 0 c 0,2.386 -1.934,4.321 -4.32,4.321 v 0 c -1.294,0 -2.455,-0.568 -3.247,-1.47"
                 style="fill:url(#linearGradient108);stroke:none"
                 id="path110" /></g></g></g></g><g
         id="g112"><g
           id="g114"
           clip-path="url(#clipPath118)"><g
             id="g120"
             transform="translate(125.9862,522.5186)"><path
               d="m 0,0 c -26.834,0 -48.587,21.753 -48.587,48.586 0,26.834 21.753,48.587 48.587,48.587 26.834,0 48.586,-21.753 48.586,-48.587 V 48.578 C 48.54,21.765 26.813,0.042 0,0 Z"
               style="fill:none;stroke:url(#linearGradient126);stroke-width:2;stroke-linecap:butt;stroke-linejoin:miter;stroke-miterlimit:10;stroke-dasharray:none;stroke-opacity:1"
               id="path128" /></g><g
             id="g130"
             transform="translate(197.813,617.6696)"><path
               d="M 0,0 V -87.097"
               style="fill:none;stroke:#17dd87;stroke-width:1;stroke-linecap:butt;stroke-linejoin:miter;stroke-miterlimit:10;stroke-dasharray:none;stroke-opacity:1"
               id="path132" /></g></g></g><g
         id="g134"><g
           id="g136"
           clip-path="url(#clipPath140)"><g
             id="g142"><g
               id="g144" /><g
               id="g170"
               mask="url(#mask158)"><g
                 id="g172"><path
                   d="m 103.165,608.315 c -0.278,-0.17 -0.366,-0.531 -0.197,-0.81 v 0 c 0.169,-0.278 0.532,-0.366 0.81,-0.197 v 0 c 6.954,4.24 14.989,6.373 23.131,6.141 v 0 c 0.274,0.033 0.489,0.248 0.521,0.521 v 0 c 0.039,0.327 -0.194,0.624 -0.521,0.663 v 0 c -0.386,0.01 -0.771,0.015 -1.156,0.015 v 0 c -7.96,0 -15.775,-2.187 -22.588,-6.333 m 16.73,2.827 c -5.842,-0.846 -11.428,-2.965 -16.361,-6.209 v 0 c -0.271,-0.178 -0.345,-0.542 -0.167,-0.813 v 0 c 0.178,-0.271 0.543,-0.347 0.813,-0.168 v 0 c 4.79,3.146 10.212,5.202 15.883,6.024 v 0 c 0.322,0.047 0.545,0.345 0.499,0.667 v 0 c -0.042,0.294 -0.294,0.505 -0.583,0.505 v 0 c -0.027,0 -0.055,-0.002 -0.084,-0.006 m 24.152,-1.175 c -0.145,-0.291 -0.027,-0.644 0.263,-0.789 v 0 h -0.017 c 12.993,-6.351 21.85,-18.889 23.492,-33.257 v 0 c 0.035,-0.324 0.326,-0.559 0.651,-0.525 v 0 c 0.324,0.035 0.559,0.327 0.524,0.651 v 0 c -1.681,14.77 -10.783,27.661 -24.138,34.189 v 0 c -0.081,0.038 -0.166,0.056 -0.249,0.056 v 0 c -0.216,0 -0.423,-0.12 -0.526,-0.325 m -7.166,-0.582 c -0.095,-0.311 0.079,-0.639 0.39,-0.735 v 0 l -0.034,0.043 c 8.704,-2.696 16.201,-8.331 21.21,-15.941 v 0 c 0.179,-0.272 0.543,-0.347 0.814,-0.169 v 0 c 0.271,0.179 0.346,0.543 0.168,0.814 v 0 c -5.161,7.816 -12.869,13.603 -21.814,16.377 v 0 c -0.058,0.018 -0.116,0.026 -0.173,0.026 v 0 c -0.252,0 -0.484,-0.162 -0.561,-0.415 m -13.613,-1.003 c -2.219,-0.141 -4.42,-0.481 -6.578,-1.015 v 0 c -0.315,-0.079 -0.506,-0.398 -0.428,-0.714 v 0 c 0.079,-0.315 0.399,-0.507 0.714,-0.427 v 0 c 2.088,0.519 4.22,0.847 6.367,0.981 v 0 c 0.325,0.021 0.571,0.301 0.55,0.625 v 0 c -0.02,0.312 -0.279,0.551 -0.587,0.551 v 0 c -0.013,0 -0.026,0 -0.038,-0.001 m 9.242,-1.137 c -0.063,-0.32 0.146,-0.63 0.465,-0.692 v 0 c 8.399,-1.674 15.91,-6.325 21.151,-13.097 v 0 c 5.301,-6.941 8.018,-15.512 7.686,-24.238 v 0 c 0,-0.325 0.263,-0.588 0.587,-0.588 v 0 c 0.325,0 0.587,0.263 0.587,0.588 v 0 c 0.351,8.992 -2.44,17.826 -7.894,24.984 v 0 c -5.425,7.002 -13.201,11.8 -21.89,13.509 v 0 c -0.039,0.007 -0.077,0.011 -0.115,0.011 v 0 c -0.276,0 -0.523,-0.196 -0.577,-0.477 m -8.017,-1.892 c -0.324,0 -0.587,-0.263 -0.587,-0.587 v 0 c 0,-0.324 0.263,-0.588 0.587,-0.588 v 0 c 10.03,0.391 19.693,-3.802 26.261,-11.393 v 0 c 0.181,-0.121 0.415,-0.13 0.605,-0.025 v 0 c 0.285,0.155 0.389,0.512 0.233,0.796 v 0 c -6.502,7.521 -15.939,11.82 -25.839,11.82 v 0 c -0.419,0 -0.84,-0.008 -1.26,-0.023 m -28.543,-2.45 c -3.793,-3.561 -6.918,-7.772 -9.229,-12.434 v 0 c -0.144,-0.292 -0.023,-0.645 0.269,-0.788 v 0 c 0.291,-0.144 0.645,-0.024 0.788,0.268 v 0 c 2.256,4.544 5.308,8.647 9.011,12.115 v 0 c 0.232,0.232 0.232,0.608 0,0.839 v 0 c -0.116,0.116 -0.268,0.174 -0.419,0.174 v 0 c -0.152,0 -0.304,-0.058 -0.42,-0.174 m 26.647,-0.772 c -0.292,-0.048 -0.501,-0.305 -0.49,-0.6 v 0 c 0.011,-0.324 0.283,-0.578 0.607,-0.566 v 0 c 8.873,0.881 17.679,-2.23 24.029,-8.491 v 0 c 0.232,-0.232 0.608,-0.232 0.839,0 v 0 c 0.232,0.232 0.232,0.608 0,0.839 v 0 c -5.853,5.779 -13.721,8.976 -21.863,8.975 v 0 c -1.037,0 -2.08,-0.051 -3.122,-0.157 m -25.053,-1.997 c -1.99,-1.934 -3.775,-4.068 -5.327,-6.368 v 0 c -0.153,-0.257 -0.088,-0.588 0.15,-0.769 v 0 c 0.259,-0.195 0.627,-0.144 0.823,0.115 v 0 l 0.008,0.009 c 1.512,2.23 3.25,4.3 5.185,6.175 v 0 c 0.232,0.231 0.232,0.607 0,0.838 v 0 c -0.116,0.116 -0.267,0.174 -0.419,0.174 v 0 c -0.152,0 -0.304,-0.058 -0.42,-0.174 m 27.956,-0.939 c -0.324,0 -0.588,-0.263 -0.588,-0.588 v 0 c 0,-0.324 0.264,-0.587 0.588,-0.587 v 0 c 8.867,0.07 17.198,-4.245 22.258,-11.528 v 0 c 0.188,-0.266 0.556,-0.33 0.822,-0.142 v 0 c 0.267,0.187 0.33,0.555 0.143,0.822 v 0 c -5.242,7.535 -13.839,12.024 -23.01,12.024 v 0 c -0.071,0 -0.142,-10e-4 -0.213,-10e-4 m 0.982,-3.65 c -0.019,-0.325 0.229,-0.602 0.553,-0.621 v 0 l 0.008,-0.033 c 6.184,-0.338 11.992,-3.077 16.185,-7.636 v 0 c 0.231,-0.231 0.607,-0.231 0.839,0 v 0 c 0.232,0.233 0.232,0.608 0,0.84 v 0 c -4.396,4.777 -10.483,7.649 -16.964,8.004 v 0 c -0.012,0 -0.024,10e-4 -0.035,10e-4 v 0 c -0.31,0 -0.569,-0.242 -0.586,-0.555 m -4.43,-2.836 c -0.322,-0.053 -0.54,-0.357 -0.487,-0.679 v 0 c 0.053,-0.322 0.357,-0.54 0.679,-0.487 v 0 c 2.706,0.453 5.473,0.37 8.147,-0.243 v 0 c 0.318,-0.072 0.633,0.127 0.705,0.445 v 0 c 0.072,0.317 -0.127,0.632 -0.445,0.704 v 0 c -1.63,0.374 -3.292,0.562 -4.956,0.562 v 0 c -1.218,0 -2.437,-0.1 -3.643,-0.302 m 11.17,-1.64 c -0.122,-0.301 0.022,-0.645 0.324,-0.768 v 0 l -0.018,-0.016 c 0.495,-0.185 0.899,-0.386 1.335,-0.596 v 0 c 0.296,-0.149 0.657,-0.028 0.806,0.268 v 0 c 0.147,0.297 0.028,0.657 -0.269,0.806 v 0 c -0.47,0.227 -0.932,0.436 -1.41,0.629 v 0 c -0.073,0.03 -0.148,0.044 -0.222,0.044 v 0 c -0.232,0 -0.452,-0.139 -0.546,-0.367 m 15.577,0.147 c -0.25,-0.208 -0.285,-0.58 -0.076,-0.83 v 0 c 4.192,-4.989 6.639,-11.213 6.963,-17.721 v 0 c 0.017,-0.324 0.293,-0.574 0.618,-0.558 v 0 c 0.324,0.017 0.574,0.293 0.557,0.617 v 0 c -0.338,6.763 -2.877,13.231 -7.231,18.417 v 0 c -0.117,0.14 -0.285,0.212 -0.454,0.212 v 0 c -0.133,0 -0.267,-0.045 -0.377,-0.137 m 4.467,-0.751 c -0.269,-0.183 -0.338,-0.549 -0.155,-0.818 v 0 c 4.401,-6.504 6.339,-14.363 5.471,-22.166 v 0 c -0.035,-0.324 0.2,-0.616 0.524,-0.651 v 0 c 0.324,-0.034 0.615,0.201 0.65,0.525 v 0 c 0.892,8.082 -1.118,16.218 -5.671,22.955 v 0 c -0.115,0.167 -0.3,0.257 -0.488,0.257 v 0 c -0.114,0 -0.229,-0.033 -0.331,-0.102 m -31.743,-1.011 c -0.317,-0.072 -0.517,-0.388 -0.445,-0.705 v 0 c 0.072,-0.317 0.388,-0.516 0.705,-0.444 v 0 c 2.087,0.47 4.24,0.56 6.36,0.268 v 0 c 0.321,-0.044 0.618,0.182 0.662,0.503 v 0 c 0.044,0.322 -0.182,0.619 -0.503,0.663 v 0 c -0.865,0.12 -1.735,0.18 -2.604,0.18 v 0 c -1.402,0 -2.802,-0.156 -4.175,-0.465 m 15.35,-0.116 c -0.199,-0.257 -0.152,-0.626 0.104,-0.824 v 0 h 0.026 c 0.603,-0.436 1.191,-0.822 1.753,-1.275 v 0 c 0.253,-0.204 0.622,-0.165 0.826,0.088 v 0 c 0.204,0.252 0.165,0.622 -0.088,0.827 v 0 c -0.601,0.481 -1.229,0.929 -1.879,1.341 v 0 c -0.088,0.048 -0.184,0.071 -0.278,0.071 v 0 c -0.176,0 -0.35,-0.08 -0.464,-0.228 m -5.442,-0.916 c -0.111,-0.306 0.047,-0.644 0.352,-0.755 v 0 0.034 c 4.187,-1.547 7.631,-4.624 9.637,-8.611 v 0 c 4.372,-8.693 0.869,-19.285 -7.824,-23.658 v 0 c -0.292,-0.146 -0.41,-0.5 -0.265,-0.793 v 0 c 0.146,-0.291 0.502,-0.41 0.793,-0.263 v 0 c 4.235,2.137 7.504,5.797 9.153,10.244 v 0 c 3.607,9.733 -1.358,20.547 -11.09,24.155 v 0 c -0.067,0.024 -0.135,0.035 -0.201,0.035 v 0 c -0.241,0 -0.468,-0.149 -0.555,-0.388 m 30.824,-1.336 c -0.305,-0.111 -0.462,-0.448 -0.351,-0.753 v 0 c 1.939,-4.618 2.976,-9.565 3.053,-14.574 v 0 c 0.034,-0.272 0.249,-0.488 0.522,-0.521 v 0 c 0.326,-0.039 0.623,0.194 0.662,0.521 v 0 c -0.078,5.165 -1.149,10.267 -3.155,15.027 v 0 c -0.1,0.21 -0.31,0.336 -0.531,0.336 v 0 c -0.066,0 -0.134,-0.012 -0.2,-0.036 m -41.219,-0.971 c -0.31,-0.095 -0.485,-0.424 -0.39,-0.734 v 0 c 0.095,-0.311 0.424,-0.485 0.734,-0.391 v 0 c 1.53,0.479 3.13,0.698 4.733,0.646 v 0 c 4.586,-0.129 8.841,-2.42 11.474,-6.178 v 0 c 4.601,-6.564 3.01,-15.615 -3.554,-20.216 v 0 c -0.267,-0.185 -0.333,-0.552 -0.147,-0.818 v 0 c 0.185,-0.267 0.551,-0.332 0.818,-0.148 v 0 c 5.612,3.918 8.037,11.022 5.992,17.554 v 0 c -2.1,6.71 -8.29,11.006 -14.968,11.006 v 0 c -1.552,0 -3.132,-0.233 -4.692,-0.721 m 21.253,-1.516 c -0.267,-0.184 -0.336,-0.549 -0.152,-0.817 v 0 -0.033 c 0.768,-1.004 1.443,-2.076 2.015,-3.203 v 0 c 5.18,-10.195 1.116,-22.659 -9.079,-27.841 v 0 c -0.245,-0.152 -0.343,-0.459 -0.231,-0.724 v 0 c 0.125,-0.299 0.469,-0.44 0.767,-0.315 v 0 c 1.209,0.612 2.357,1.335 3.432,2.16 v 0 c 9.581,7.357 11.384,21.089 4.027,30.669 v 0 c -0.115,0.136 -0.28,0.207 -0.447,0.207 v 0 c -0.115,0 -0.23,-0.034 -0.332,-0.103 m -28.485,-9.35 c -0.104,-0.307 0.061,-0.642 0.369,-0.746 v 0 c 0.308,-0.104 0.643,0.061 0.747,0.369 v 0 c 0.951,2.745 2.913,5.025 5.487,6.374 v 0 c 5.585,2.929 12.486,0.775 15.415,-4.81 v 0 c 2.928,-5.585 0.775,-12.487 -4.81,-15.416 v 0 c -0.288,-0.15 -0.399,-0.505 -0.247,-0.793 v 0 c 0.15,-0.287 0.505,-0.397 0.792,-0.247 v 0 c 2.82,1.486 4.971,3.987 6.019,6.997 v 0 c 2.284,6.564 -1.185,13.738 -7.75,16.022 v 0 c -1.369,0.477 -2.765,0.703 -4.137,0.703 v 0 c -5.207,0 -10.077,-3.257 -11.885,-8.453 m 36.543,8.068 c -0.295,-0.14 -0.421,-0.491 -0.282,-0.785 v 0 c 0.371,-0.794 0.703,-1.605 0.994,-2.431 v 0 c 4.943,-14.014 -2.409,-29.382 -16.423,-34.326 v 0 c -0.307,-0.106 -0.471,-0.443 -0.365,-0.75 v 0 c 0.107,-0.308 0.443,-0.472 0.751,-0.365 v 0 c 0.864,0.304 1.713,0.651 2.543,1.039 v 0 c 14.056,6.564 20.13,23.28 13.566,37.336 v 0 c -0.101,0.213 -0.312,0.338 -0.533,0.338 v 0 c -0.085,0 -0.17,-0.018 -0.251,-0.056 m -3.402,-0.181 c -0.288,-0.153 -0.397,-0.509 -0.244,-0.796 v 0 c 0.144,-0.271 0.283,-0.545 0.417,-0.821 v 0 c 5.731,-11.842 0.777,-26.086 -11.064,-31.817 v 0 c -0.285,-0.142 -0.404,-0.486 -0.269,-0.775 v 0 c 0.138,-0.293 0.488,-0.42 0.781,-0.282 v 0 c 0.296,0.144 0.59,0.292 0.879,0.447 v 0 c 12.177,6.491 16.787,21.624 10.296,33.801 v 0 c -0.106,0.199 -0.309,0.312 -0.52,0.312 v 0 c -0.093,0 -0.188,-0.022 -0.276,-0.069 m -27.565,-4.935 c -3.898,-3.525 -4.201,-9.541 -0.676,-13.438 v 0 c 0.192,-0.138 0.449,-0.145 0.65,-0.021 v 0 c 0.275,0.171 0.36,0.534 0.188,0.809 v 0 h 0.009 c -1.437,1.588 -2.206,3.667 -2.149,5.807 v 0 c 0.123,4.595 3.948,8.22 8.542,8.098 v 0 c 4.596,-0.123 8.221,-3.947 8.098,-8.543 v 0 c -0.123,-4.595 -3.947,-8.22 -8.542,-8.097 v 0 c -0.273,-0.032 -0.489,-0.248 -0.521,-0.521 v 0 c -0.039,-0.327 0.194,-0.623 0.521,-0.663 v 0 c 2.447,-0.066 4.826,0.812 6.642,2.455 v 0 c 3.897,3.523 4.2,9.54 0.675,13.438 v 0 c -1.878,2.077 -4.463,3.133 -7.059,3.133 v 0 c -2.275,0 -4.558,-0.812 -6.378,-2.457 m -0.106,-6.886 c -0.096,-3.537 2.692,-6.483 6.229,-6.581 v 0 c 3.539,-0.099 6.487,2.69 6.586,6.229 v 0 c 0.098,3.538 -2.69,6.487 -6.228,6.586 v 0 h 0.033 c -0.007,0 -0.015,0 -0.023,0 v 0 c -0.062,0.002 -0.124,0.003 -0.186,0.003 v 0 c -3.46,-10e-4 -6.313,-2.756 -6.411,-6.237 m 6.288,-5.416 c -2.89,0.082 -5.166,2.492 -5.084,5.382 v 0 c 0.082,2.891 2.493,5.167 5.383,5.084 v 0 c 2.885,-0.081 5.159,-2.484 5.084,-5.369 v 0 c 0,-0.005 0,-0.009 0,-0.013 v 0 c -0.082,-2.839 -2.408,-5.086 -5.231,-5.086 v 0 c -0.05,0 -0.101,10e-4 -0.152,0.002 m -43.33,8.663 v -1.444 c 0,-0.324 0.263,-0.587 0.588,-0.587 v 0 c 0.324,0 0.587,0.263 0.587,0.587 v 0 l 0.009,0.025 v 1.419 c -0.033,0.272 -0.249,0.488 -0.521,0.521 v 0 c -0.024,0.003 -0.048,0.004 -0.071,0.004 v 0 c -0.298,0 -0.555,-0.222 -0.592,-0.525 m 40.164,-3.331 c -0.002,-0.047 -0.003,-0.094 -0.003,-0.141 v 0 c 0.003,-1.853 1.508,-3.353 3.361,-3.349 v 0 c 1.853,0.002 3.354,1.508 3.351,3.361 v 0 c -0.004,1.854 -1.508,3.354 -3.362,3.351 v 0 l 0.067,0.008 c -0.021,0 -0.041,10e-4 -0.062,10e-4 v 0 c -1.8,-10e-4 -3.285,-1.425 -3.352,-3.231 m 3.23,-2.232 c -1.182,0.032 -2.114,1.017 -2.081,2.199 v 0 c 0.032,1.181 1.016,2.113 2.198,2.08 v 0 c 1.18,-0.037 2.109,-1.018 2.08,-2.198 v 0 c -0.035,-1.163 -0.989,-2.082 -2.146,-2.082 v 0 c -0.017,0 -0.034,0 -0.051,10e-4 m -43.377,-0.126 c 0.57,-11.263 5.498,-21.863 13.743,-29.558 v 0 c 0.231,-0.231 0.608,-0.231 0.839,0 v 0 c 0.231,0.232 0.231,0.608 0,0.839 v 0 h 0.025 c -8.049,7.48 -12.865,17.804 -13.424,28.778 v 0 c -0.043,0.277 -0.274,0.485 -0.554,0.502 v 0 c -0.011,0 -0.023,10e-4 -0.034,10e-4 v 0 c -0.314,0 -0.577,-0.245 -0.595,-0.562 m 73.329,-0.268 c -1.026,-12.11 -9.26,-22.402 -20.85,-26.06 v 0 c -0.31,-0.097 -0.482,-0.427 -0.385,-0.738 v 0 c 0.097,-0.31 0.427,-0.483 0.738,-0.386 v 0 c 12.049,3.801 20.61,14.502 21.671,27.092 v 0 c 0.026,0.324 -0.217,0.607 -0.541,0.633 v 0 c -0.016,0.001 -0.032,0.002 -0.048,0.002 v 0 c -0.303,-10e-4 -0.561,-0.235 -0.585,-0.543 m -69.621,-0.327 c -0.324,-0.028 -0.564,-0.314 -0.536,-0.638 v 0 c 0.858,-9.906 5.339,-19.149 12.585,-25.959 v 0 c 0.232,-0.231 0.607,-0.231 0.838,0 v 0 c 0.233,0.232 0.233,0.608 0,0.839 v 0 l -0.016,0.05 c -7.035,6.6 -11.39,15.561 -12.233,25.171 v 0 c -0.026,0.307 -0.284,0.539 -0.588,0.539 v 0 c -0.016,0 -0.033,-10e-4 -0.05,-0.002 m 75.712,-1.595 c -0.21,-1.955 -0.586,-3.889 -1.124,-5.781 v 0 c -0.049,-0.274 0.102,-0.545 0.361,-0.648 v 0 c 0.302,-0.119 0.643,0.028 0.763,0.33 v 0 c 0.562,1.954 0.956,3.953 1.174,5.974 v 0 c 0.035,0.324 -0.2,0.615 -0.523,0.65 v 0 c -0.022,0.002 -0.044,0.003 -0.065,0.003 v 0 c -0.298,0 -0.553,-0.225 -0.586,-0.528 M 89.322,565.987 C 89,565.939 88.779,565.638 88.827,565.316 v 0 c 1.248,-7.963 5.042,-15.307 10.815,-20.933 v 0 c 0.231,-0.232 0.607,-0.232 0.838,0 v 0 c 0.233,0.231 0.233,0.607 0,0.839 v 0 c -5.597,5.444 -9.277,12.557 -10.487,20.27 v 0 c -0.044,0.292 -0.296,0.502 -0.582,0.502 v 0 c -0.029,0 -0.059,-0.002 -0.089,-0.007 m 68.915,-0.855 c -2.205,-11.887 -10.711,-21.627 -22.191,-25.414 v 0 c -0.308,-0.102 -0.475,-0.434 -0.374,-0.742 v 0 c 0.102,-0.309 0.435,-0.475 0.743,-0.374 v 0 c 11.892,3.917 20.702,14.007 22.98,26.32 v 0 c 0.058,0.319 -0.154,0.625 -0.474,0.683 v 0 c -0.036,0.007 -0.071,0.01 -0.106,0.01 v 0 c -0.279,0 -0.526,-0.2 -0.578,-0.483 m -63.957,-6.05 c -0.301,-0.12 -0.447,-0.462 -0.327,-0.763 v 0 c 1.402,-3.466 3.36,-6.68 5.798,-9.514 v 0 c 0.203,-0.19 0.511,-0.213 0.741,-0.056 v 0 c 0.272,0.185 0.341,0.555 0.157,0.827 v 0 c -2.357,2.733 -4.251,5.834 -5.605,9.179 v 0 c -0.092,0.229 -0.312,0.369 -0.546,0.369 v 0 c -0.072,0 -0.146,-0.014 -0.218,-0.042 m 4.462,-2.185 c -0.3,-0.125 -0.441,-0.468 -0.317,-0.768 v 0 c 0.928,-1.712 2.015,-3.333 3.247,-4.841 v 0 c 0.209,-0.25 0.581,-0.285 0.831,-0.076 v 0 c 0.25,0.209 0.283,0.581 0.075,0.831 v 0 c -1.185,1.449 -2.232,3.005 -3.129,4.648 v 0 c -0.113,0.161 -0.294,0.251 -0.482,0.251 v 0 c -0.075,0 -0.152,-0.015 -0.225,-0.045 m 56.089,-7.388 V 549.5 c -4.591,-6.066 -10.953,-10.557 -18.207,-12.853 v 0 c -0.31,-0.097 -0.483,-0.428 -0.386,-0.738 v 0 c 0.099,-0.31 0.429,-0.483 0.739,-0.386 v 0 c 7.488,2.37 14.056,7.009 18.794,13.273 v 0 c 0.196,0.26 0.146,0.63 -0.113,0.827 v 0 c -0.107,0.08 -0.232,0.119 -0.357,0.119 v 0 c -0.178,0 -0.354,-0.08 -0.47,-0.233 m -5.328,-9.606 v -0.025 c -3.519,-2.68 -7.464,-4.747 -11.67,-6.117 v 0 c -0.251,-0.116 -0.389,-0.389 -0.334,-0.659 v 0 c 0.066,-0.323 0.381,-0.531 0.703,-0.465 v 0 c 4.333,1.421 8.394,3.563 12.014,6.334 v 0 c 0.229,0.196 0.274,0.531 0.104,0.78 v 0 c -0.114,0.166 -0.298,0.255 -0.485,0.255 v 0 c -0.115,0 -0.23,-0.034 -0.332,-0.103"
                   style="fill:url(#radialGradient180);stroke:none"
                   id="path182" /></g></g></g></g></g><g
         id="g184"><g
           id="g186"
           clip-path="url(#clipPath190)"><g
             id="g192"
             transform="translate(129.3003,518.1054)"><path
               d="m 0,0 c -7.987,-11.419 -15.807,-17.619 -22.225,-17.619 -0.974,-0.005 -1.943,0.145 -2.869,0.445 -6.511,2.122 -10.119,11.511 -10.169,26.428 -0.051,14.59 3.264,32.864 9.321,51.464 1.938,5.932 4.044,11.595 6.276,16.915"
               style="fill:none;stroke:url(#linearGradient200);stroke-width:2;stroke-linecap:round;stroke-linejoin:miter;stroke-miterlimit:10;stroke-dasharray:none;stroke-opacity:1"
               id="path202" /></g></g></g><g
         id="g204"><g
           id="g206"><g
             id="g212"><g
               id="g214"><path
                 d="m 98.475,591.04 c 0,-5.139 4.166,-9.305 9.304,-9.305 v 0 c 5.14,0 9.306,4.166 9.306,9.305 v 0 c 0,5.139 -4.166,9.304 -9.306,9.304 v 0 c -5.138,0 -9.304,-4.165 -9.304,-9.304"
                 style="fill:url(#linearGradient220);stroke:none"
                 id="path222" /></g></g></g></g><g
         id="g1883"><g
           id="g232"
           transform="translate(224.9463,615.8657)"><path
             d="M 0,0 H 24.071 V -4.682 H 4.883 v -12.266 h 17.753 v -4.681 H 4.883 v -12.98 H 24.13 v -4.673 H 0 Z"
             style="fill:#00b2f4;fill-opacity:1;fill-rule:nonzero;stroke:none"
             id="path234" /></g><g
           id="g236"
           transform="translate(279.4309,590.83)"><path
             d="m 0,0 c 0,5.68 -3.935,10.521 -10.068,10.521 -6.133,0 -9.892,-4.841 -9.892,-10.58 0,-5.738 3.834,-10.521 9.942,-10.521 C -3.91,-10.58 0,-5.797 0,0 m 4.195,14.188 v -28.434 h -4.573 v 4.086 c -2.456,-3.086 -6.208,-4.853 -10.151,-4.783 -8.181,0 -14.263,6.595 -14.263,15.102 0,8.508 6.066,14.725 14.263,14.725 3.965,0.06 7.727,-1.752 10.151,-4.892 v 4.196 z"
             style="fill:#00b2f4;fill-opacity:1;fill-rule:nonzero;stroke:none"
             id="path238" /></g><g
           id="g240"
           transform="translate(291.0175,605.0175)"><path
             d="M 0,0 H 4.464 V -4.254 C 6.141,-0.847 8.877,0.78 12.702,0.78 13.816,0.782 14.924,0.638 16,0.352 l -0.428,-4.623 c -0.943,0.31 -1.928,0.472 -2.92,0.479 -4.304,0 -7.92,-2.87 -7.92,-9.305 V -28.434 H 0 Z"
             style="fill:#00b2f4;fill-opacity:1;fill-rule:nonzero;stroke:none"
             id="path242" /></g><g
           id="g244"
           transform="translate(331.0966,578.2785)"><path
             d="m 0,0 c -2.152,-1.591 -4.766,-2.431 -7.442,-2.391 -6.116,0 -8.986,4.044 -8.986,10.58 v 14.456 h -5.034 v 4.094 h 5.11 v 10.068 h 4.673 V 26.739 H -1.527 V 22.645 H -11.679 V 7.71 c 0,-3.507 1.225,-5.738 4.682,-5.738 1.841,0.063 3.626,0.645 5.151,1.678 z"
             style="fill:#00b2f4;fill-opacity:1;fill-rule:nonzero;stroke:none"
             id="path246" /></g><g
           id="g248"
           transform="translate(335.6691,616.8221)"><path
             d="m 0,0 h 4.573 v -15.312 c 1.753,2.517 5.034,4.254 9.036,4.254 5.873,0 11.217,-3.826 11.217,-11.964 v -17.216 h -4.732 v 15.89 c 0,5.873 -3.138,8.877 -7.392,8.877 -4.732,0 -7.97,-3.667 -7.97,-8.877 v -15.89 H 0 Z"
             style="fill:#00b2f4;fill-opacity:1;fill-rule:nonzero;stroke:none"
             id="path250" /></g><g
           id="g252"
           transform="translate(383.6432,581.257)"><path
             d="m 0,0 c 8.558,0 13.239,6.485 13.239,15.043 0,8.558 -4.681,14.884 -13.18,14.884 H -9.17 V 0 Z M -14.062,34.609 H 0.403 c 11.049,0 17.963,-7.602 17.963,-19.725 0,-12.124 -6.964,-19.557 -18.5,-19.557 h -13.928 z"
             style="fill:#00b2f4;fill-opacity:1;fill-rule:nonzero;stroke:none"
             id="path254" /></g><g
           id="g256"
           transform="translate(431.0383,590.83)"><path
             d="m 0,0 c 0,5.68 -3.927,10.521 -10.068,10.521 -6.142,0 -9.942,-4.841 -9.942,-10.58 0,-5.738 3.826,-10.521 9.942,-10.521 6.116,0 10.06,4.783 10.06,10.58 z m 4.195,14.188 v -28.434 h -4.606 v 4.086 c -2.457,-3.086 -6.209,-4.853 -10.152,-4.783 -8.189,0 -14.263,6.595 -14.263,15.102 0,8.508 6.058,14.725 14.263,14.725 3.966,0.06 7.728,-1.752 10.152,-4.892 v 4.196 z"
             style="fill:#00b2f4;fill-opacity:1;fill-rule:nonzero;stroke:none"
             id="path258" /></g><g
           id="g260"
           transform="translate(443.682,576.5921)"><path
             d="M 0,0 V 28.425 H 4.732 V -0.008 Z M -1.116,36.077 C -1.12,38.018 0.45,39.596 2.392,39.6 4.333,39.605 5.911,38.035 5.915,36.093 5.919,34.168 4.375,32.598 2.45,32.57 c -1.899,-0.07 -3.494,1.412 -3.564,3.311 -0.003,0.065 -0.003,0.131 -0.002,0.196"
             style="fill:#00b2f4;fill-opacity:1;fill-rule:nonzero;stroke:none"
             id="path262" /></g><path
           d="m 455.797,616.856 h 4.732 v -40.272 h -4.732 z"
           style="fill:#00b2f4;fill-opacity:1;fill-rule:nonzero;stroke:none"
           id="path264" /><g
           id="g266"
           transform="translate(493.2837,605.0175)"><path
             d="m 0,0 -12.014,-31.882 c -2.45,-6.444 -5.479,-8.617 -9.532,-8.617 -1.539,-0.065 -3.065,0.304 -4.404,1.066 l 0.528,4.195 c 1.088,-0.498 2.262,-0.783 3.457,-0.839 2.232,0 4.094,1.334 5.63,5.034 l 1.116,2.769 L -27.586,0 h 5.47 L -13.08,-21.814 -5.269,0 Z"
             style="fill:#00b2f4;fill-opacity:1;fill-rule:nonzero;stroke:none"
             id="path268" /></g></g></g></g></svg>
