<?xml version="1.0" encoding="UTF-8" standalone="no"?>
<!-- Created with Inkscape (http://www.inkscape.org/) -->

<svg
   version="1.1"
   id="svg2"
   xml:space="preserve"
   width="750.20233"
   height="346.77191"
   viewBox="0 0 750.20233 346.77191"
   xmlns="http://www.w3.org/2000/svg"
   xmlns:svg="http://www.w3.org/2000/svg"><defs
     id="defs6"><clipPath
       clipPathUnits="userSpaceOnUse"
       id="clipPath16"><path
         d="M 0,510.236 H 812.81 V 0 H 0 Z"
         id="path14" /></clipPath></defs><g
     id="g8"
     transform="matrix(1.3333333,0,0,-1.3333333,-166.77178,513.54334)"><g
       id="g10"><g
         id="g12"
         clip-path="url(#clipPath16)"><g
           id="g18"
           transform="translate(509.9659,263.1724)"><path
             d="m 0,0 c -7.3,1.35 -16.88,2.061 -19.995,6.484 -4.68,6.643 1.166,16.309 16.478,15.406 C 10.344,21.073 12.234,10.376 12.425,6.216 H 32.42 c 0.273,7.834 -2.972,15.941 -7.839,21.075 -6.207,6.483 -20.802,13.245 -38.898,10.534 -9.734,-1.346 -22.702,-7.018 -27.03,-19.724 -3.784,-11.885 0,-22.691 7.295,-28.369 9.19,-7.028 26.435,-9.133 33.509,-10.545 8.553,-1.708 14.904,-2.852 13.849,-11.95 -1.11,-9.563 -15.932,-12.284 -25.739,-9.119 -6.991,2.256 -10,7.839 -11.35,15.401 h -21.07 c 0,-9.584 5.702,-19.696 11.474,-24.338 8.562,-6.885 18.29,-9.307 29.531,-9.307 14.764,0 26.981,3.806 34.38,14.732 3.878,5.728 8.106,18.913 1.345,30.799 C 25.937,-4.324 12.425,-2.161 0,0"
             style="fill:#042a3d;fill-opacity:1;fill-rule:nonzero;stroke:none"
             id="path20" /></g><g
           id="g22"
           transform="translate(440.2461,288.3013)"><path
             d="m 0,0 c -8.583,9.809 -23.611,15.406 -38.905,12.974 -28.696,-4.563 -35.721,-31.754 -37.02,-40.537 -2.431,-16.442 2.434,-44.042 31.347,-54.854 13.502,-5.129 30.531,-3.24 43.499,6.216 7.295,5.411 14.591,17.564 15.13,25.136 H -9.997 c -0.806,-3.245 -2.7,-7.572 -7.024,-10.812 -9.732,-7.024 -20.806,-2.434 -25.673,1.083 -7.295,5.401 -9.995,14.315 -9.995,27.019 0,17.591 8.086,28.009 22.051,28.009 12.637,0 20.45,-10.873 19.835,-19.902 H -44.855 V -42.692 H 14.051 C 15.489,-26.666 8.042,-9.191 0,0"
             style="fill:#042a3d;fill-opacity:1;fill-rule:nonzero;stroke:none"
             id="path24" /></g><g
           id="g26"
           transform="translate(615.4346,232.7129)"><path
             d="M 0,0 C -1.962,-5.644 -7.259,-9.787 -17.29,-11.105 -30.524,-12.844 -39.565,-4.628 -33.843,5.951 -28.097,16.574 -6.935,12.808 1.083,20.54 1.083,18.38 1.433,4.125 0,0 m 24.324,-3.511 v 29.186 c 0,4.426 -0.535,15.074 -1.889,22.157 -0.976,5.1 -5.373,12.835 -13.791,17.032 -7.337,3.657 -12.982,4.315 -24.928,4.315 -17.957,0 -37.285,-6.245 -38.112,-32.153 h 21.612 c 0,9.375 6.494,14.912 16.438,14.912 9.731,0 17.983,-5.24 16.084,-13.834 -1.898,-8.595 -17.767,-8.915 -27.909,-10.268 -11.76,-1.568 -27.562,-7.023 -31.346,-23.508 -1.35,-6.484 -0.271,-18.374 9.724,-26.208 6.761,-5.134 13.942,-7.3 23.513,-7.3 12.209,0 22.471,5.317 28.179,10.54 0.267,-1.35 1.617,-6.483 2.701,-7.839 h 22.696 c -3.517,7.028 -2.972,17.923 -2.972,22.968"
             style="fill:#042a3d;fill-opacity:1;fill-rule:nonzero;stroke:none"
             id="path28" /></g><g
           id="g30"
           transform="translate(210.8887,244.4219)"><path
             d="m 0,0 c -5.357,0 -9.7,4.343 -9.7,9.699 0,5.357 4.343,9.7 9.7,9.7 5.357,0 9.7,-4.343 9.7,-9.7 C 9.7,4.343 5.357,0 0,0 M 75.251,-43.511 C 36.956,-30.29 29.872,5.136 39.416,29.937 48.946,54.736 82.328,66.312 105.492,49.695 128.666,33.072 126.207,1.187 126.207,1.187 H 66.803 v 17.024 h 34.475 c 0,0 0.962,6.638 -4.775,12.951 -7.65,8.418 -18.619,8.321 -25.751,4.22 -8.887,-5.111 -14.985,-23.344 -10.224,-39.375 4.762,-16.031 19.32,-22.402 33.325,-22.402 20.288,0 35.385,14.024 35.417,36.983 0.077,38.046 -25.579,72.734 -64.135,82.518 -45.511,11.543 -91.763,-15.992 -103.315,-61.504 -11.543,-45.511 15.988,-91.769 61.502,-103.315 32.488,-8.24 65.35,3.428 85.701,27.334 -9.635,-2.846 -21.082,-3.511 -33.772,0.868"
             style="fill:#042a3d;fill-opacity:1;fill-rule:nonzero;stroke:none"
             id="path32" /></g></g></g></g></svg>
