<?xml version="1.0" encoding="UTF-8" standalone="no"?>
<svg
   width="1302.65"
   height="479.16501"
   viewBox="0 0 1302.65 479.16501"
   fill="none"
   version="1.1"
   id="svg26"
   xmlns="http://www.w3.org/2000/svg"
   xmlns:svg="http://www.w3.org/2000/svg">
  <defs
     id="defs30" />
  <g
     id="g859"
     transform="translate(-77,-26)">
    <path
       d="m 349.196,319.067 c 0,22.835 -9.071,44.734 -25.218,60.881 -16.146,16.146 -38.045,25.217 -60.88,25.217 -22.835,0 -44.734,-9.071 -60.88,-25.217 C 186.071,363.801 177,341.902 177,319.067 Z"
       fill="#161613"
       id="path2" />
    <path
       d="M 263.098,298.196 C 215.548,298.196 177,259.648 177,212.098 177,164.547 215.548,126 263.098,126 c 47.551,0 86.098,38.547 86.098,86.098 0,47.55 -38.547,86.098 -86.098,86.098 z"
       fill="#161613"
       id="path4" />
    <path
       d="m 498.982,282.826 h 34.41 c -2.046,13.764 -14.88,29.76 -36.828,29.76 -21.948,0 -41.106,-19.344 -41.106,-46.686 0,-27.342 19.158,-46.686 41.106,-46.686 18.972,0 30.69,11.904 34.968,23.064 h 22.134 c -4.836,-22.134 -26.784,-43.71 -57.102,-43.71 -33.852,0 -62.682,29.388 -62.682,67.332 0,37.944 28.83,67.332 62.682,67.332 19.53,0 34.41,-10.602 41.85,-20.832 l 4.092,18.6 h 13.206 v -66.774 h -56.73 z"
       fill="#161613"
       id="path6" />
    <path
       d="M 601.247,331 V 200.8 h -20.46 V 331 Z"
       fill="#161613"
       id="path8" />
    <path
       d="m 636.042,223.678 c 6.696,0 11.904,-5.208 11.904,-11.904 0,-6.882 -5.208,-12.09 -11.904,-12.09 -6.696,0 -12.09,5.208 -12.09,12.09 0,6.696 5.394,11.904 12.09,11.904 z M 646.272,331 v -94.116 h -20.46 V 331 Z"
       fill="#161613"
       id="path10" />
    <path
       d="m 690.411,331 v -53.754 c 0,-13.95 8.928,-23.622 21.762,-23.622 12.462,0 21.576,9.672 21.576,23.622 V 331 h 20.274 v -55.242 c 0,-24.924 -15.624,-41.106 -37.758,-41.106 -13.95,0 -23.436,8.556 -26.412,12.648 h -0.93 l -3.72,-10.416 H 669.951 V 331 Z"
       fill="#161613"
       id="path12" />
    <path
       d="m 811.019,333.232 c 5.022,0 8.742,-0.93 11.16,-1.86 v -18.6 c -1.86,0.93 -4.092,1.302 -6.51,1.302 -8.37,0 -13.95,-4.836 -13.95,-15.252 v -43.524 h 20.46 v -18.414 h -20.46 v -24.18 h -17.67 v 14.136 c 0,7.254 -3.906,11.16 -11.346,11.16 h -6.696 v 17.298 h 15.438 v 45.198 c 0,20.646 12.462,32.736 29.574,32.736 z"
       fill="#161613"
       id="path14" />
    <path
       d="m 926.773,333.232 c 29.016,0 45.012,-15.996 45.012,-37.2 0,-46.872 -68.076,-32.364 -68.076,-60.636 0,-9.858 7.626,-17.298 21.576,-17.298 13.764,0 22.32,8.928 23.064,21.576 h 21.576 c -1.116,-23.064 -18.042,-41.106 -44.64,-41.106 -27.156,0 -43.152,15.81 -43.152,36.456 0,46.314 68.076,32.736 68.076,61.566 0,9.486 -7.626,17.112 -23.25,17.112 -15.996,0 -24.924,-9.3 -26.226,-22.692 h -21.576 c 1.116,24.366 18.786,42.222 47.616,42.222 z"
       fill="#161613"
       id="path16" />
    <path
       d="m 1029.95,333.232 c 25.48,0 46.68,-21.948 46.68,-49.29 0,-27.528 -21.2,-49.29 -46.68,-49.29 -25.49,0 -46.69,21.762 -46.69,49.29 0,27.342 21.2,49.29 46.69,49.29 z m 0,-18.972 c -14.51,0 -26.42,-12.462 -26.42,-30.318 0,-17.856 11.91,-30.318 26.42,-30.318 14.5,0 26.41,12.462 26.41,30.318 0,17.856 -11.91,30.318 -26.41,30.318 z"
       fill="#161613"
       id="path18" />
    <path
       d="M 1113.79,331 V 200.8 h -20.46 V 331 Z"
       fill="#161613"
       id="path20" />
    <path
       d="m 1171,234.652 c -22.7,0 -35.53,15.066 -37.2,30.876 h 20.46 c 1.11,-6.138 6.32,-12.462 16.55,-12.462 10.6,0 17.48,6.882 17.48,18.228 v 3.162 h -15.06 c -25.86,0 -43.71,11.904 -43.71,30.69 0,15.438 13.2,28.086 31.62,28.086 15.06,0 23.81,-7.998 27.53,-12.834 h 0.93 l 3.72,10.602 h 15.25 v -58.032 c 0,-22.878 -14.51,-38.316 -37.57,-38.316 z m -5.58,81.282 c -10.23,0 -15.44,-5.208 -15.44,-12.462 0,-8.556 7.44,-14.322 23.43,-14.322 h 14.88 v 5.952 c 0,11.16 -8.92,20.832 -22.87,20.832 z"
       fill="#161613"
       id="path22" />
    <path
       d="m 1249.14,331 v -52.08 c 0,-15.066 9.12,-23.808 22.14,-23.808 3.35,0 5.76,0.186 8.37,0.744 v -20.46 c -2.42,-0.558 -4.47,-0.744 -7.81,-0.744 -12.09,0 -20.65,8.928 -23.25,12.648 h -0.93 l -3.72,-10.416 h -15.26 V 331 Z"
       fill="#161613"
       id="path24" />
  </g>
</svg>
