<?xml version="1.0" encoding="UTF-8" standalone="no"?>
<!-- Created with Inkscape (http://www.inkscape.org/) -->

<svg
   version="1.1"
   id="svg2"
   xml:space="preserve"
   width="256.992"
   height="256.992"
   viewBox="0 0 256.99201 256.99201"
   xmlns="http://www.w3.org/2000/svg"
   xmlns:svg="http://www.w3.org/2000/svg"><defs
     id="defs6"><clipPath
       clipPathUnits="userSpaceOnUse"
       id="clipPath16"><path
         d="M 0,595.276 H 841.89 V 0 H 0 Z"
         id="path14" /></clipPath><clipPath
       clipPathUnits="userSpaceOnUse"
       id="clipPath84"><path
         d="M 0,595.276 H 841.89 V 0 H 0 Z"
         id="path82" /></clipPath><clipPath
       clipPathUnits="userSpaceOnUse"
       id="clipPath138"><path
         d="M 0,595.276 H 841.89 V 0 H 0 Z"
         id="path136" /></clipPath><clipPath
       clipPathUnits="userSpaceOnUse"
       id="clipPath202"><path
         d="M 0,595.276 H 841.89 V 0 H 0 Z"
         id="path200" /></clipPath><clipPath
       clipPathUnits="userSpaceOnUse"
       id="clipPath264"><path
         d="M 0,595.276 H 841.89 V 0 H 0 Z"
         id="path262" /></clipPath><clipPath
       clipPathUnits="userSpaceOnUse"
       id="clipPath320"><path
         d="M 0,595.276 H 841.89 V 0 H 0 Z"
         id="path318" /></clipPath><clipPath
       clipPathUnits="userSpaceOnUse"
       id="clipPath364"><path
         d="M 0,595.276 H 841.89 V 0 H 0 Z"
         id="path362" /></clipPath><clipPath
       clipPathUnits="userSpaceOnUse"
       id="clipPath420"><path
         d="M 0,595.276 H 841.89 V 0 H 0 Z"
         id="path418" /></clipPath><clipPath
       clipPathUnits="userSpaceOnUse"
       id="clipPath466"><path
         d="M 0,595.276 H 841.89 V 0 H 0 Z"
         id="path464" /></clipPath><clipPath
       clipPathUnits="userSpaceOnUse"
       id="clipPath536"><path
         d="M 0,595.276 H 841.89 V 0 H 0 Z"
         id="path534" /></clipPath><clipPath
       clipPathUnits="userSpaceOnUse"
       id="clipPath604"><path
         d="M 0,595.276 H 841.89 V 0 H 0 Z"
         id="path602" /></clipPath><clipPath
       clipPathUnits="userSpaceOnUse"
       id="clipPath652"><path
         d="M 0,595.276 H 841.89 V 0 H 0 Z"
         id="path650" /></clipPath></defs><g
     id="g8"
     transform="matrix(1.3333333,0,0,-1.3333333,-789.49171,536.20625)"><g
       id="g598"><g
         id="g600"
         clip-path="url(#clipPath604)"><g
           id="g606"
           transform="translate(773.5303,305.7832)"><path
             d="m 0,0 c 0,-46.966 -38.074,-85.04 -85.039,-85.04 -46.966,0 -85.04,38.074 -85.04,85.04 0,46.965 38.074,85.039 85.04,85.039 C -38.074,85.039 0,46.965 0,0 Z"
             style="fill:none;stroke:#231f20;stroke-width:0.165;stroke-linecap:butt;stroke-linejoin:miter;stroke-miterlimit:10;stroke-dasharray:none;stroke-opacity:1"
             id="path608" /></g><g
           id="g610"
           transform="translate(728.124,317.8291)"><path
             d="m 0,0 c -9.005,-7.19 -24.068,-7.627 -33.474,-0.972 l -9.304,6.585 c -9.407,6.655 -24.469,6.22 -33.474,-0.97"
             style="fill:none;stroke:#33bdf2;stroke-width:2.879;stroke-linecap:round;stroke-linejoin:miter;stroke-miterlimit:10;stroke-dasharray:none;stroke-opacity:1"
             id="path612" /></g><g
           id="g614"
           transform="translate(665.293,336.8037)"><path
             d="M 0,0 V 20.274"
             style="fill:none;stroke:#4f4c4d;stroke-width:2.879;stroke-linecap:round;stroke-linejoin:miter;stroke-miterlimit:10;stroke-dasharray:none;stroke-opacity:1"
             id="path616" /></g><g
           id="g618"
           transform="translate(665.293,311.6162)"><path
             d="M 0,0 V 7.843"
             style="fill:none;stroke:#4f4c4d;stroke-width:2.879;stroke-linecap:round;stroke-linejoin:miter;stroke-miterlimit:10;stroke-dasharray:none;stroke-opacity:1"
             id="path620" /></g><g
           id="g622"
           transform="translate(751.3643,282.1719)"><path
             d="m 0,0 c 0,-12.634 -10.241,-22.874 -22.873,-22.874 -12.633,0 -22.873,10.24 -22.873,22.874 0,12.632 10.24,22.872 22.873,22.872 C -10.241,22.872 0,12.632 0,0 Z"
             style="fill:none;stroke:#4f4c4d;stroke-width:2.879;stroke-linecap:round;stroke-linejoin:miter;stroke-miterlimit:10;stroke-dasharray:none;stroke-opacity:1"
             id="path624" /></g><g
           id="g626"
           transform="translate(665.293,259.2979)"><path
             d="M 0,0 C 12.633,0 22.874,10.24 22.874,22.874 V 45.823"
             style="fill:none;stroke:#4f4c4d;stroke-width:2.879;stroke-linecap:round;stroke-linejoin:miter;stroke-miterlimit:10;stroke-dasharray:none;stroke-opacity:1"
             id="path628" /></g><g
           id="g630"
           transform="translate(710.874,321.9961)"><path
             d="m 0,0 17.666,35.229 22.88,-45.701"
             style="fill:none;stroke:#4f4c4d;stroke-width:2.879;stroke-linecap:round;stroke-linejoin:round;stroke-miterlimit:10;stroke-dasharray:none;stroke-opacity:1"
             id="path632" /></g><g
           id="g634"
           transform="translate(696.3584,357.0029)"><path
             d="M 0,0 C 0,-9.727 -4.852,-18.319 -12.266,-23.491"
             style="fill:none;stroke:#4f4c4d;stroke-width:2.879;stroke-linecap:round;stroke-linejoin:miter;stroke-miterlimit:10;stroke-dasharray:none;stroke-opacity:1"
             id="path636" /></g></g></g><text
       transform="matrix(1,0,0,-1,646.0942,293.5215)"
       style="font-variant:normal;font-weight:normal;font-stretch:normal;font-size:9px;font-family:'FF Unit Rounded Pro';-inkscape-font-specification:FFUnitRoundedPro-Regular;writing-mode:lr-tb;fill:#4f4c4d;fill-opacity:1;fill-rule:nonzero;stroke:none"
       id="text644"><tspan
         x="0 6.2729998 12.546 18.368999"
         y="0"
         id="tspan638">www.</tspan><tspan
         x="-26.073 -21.708 -17.243999 -14.598 -9.9359999 -6.0300002 -1.602 1.62 5.9039998 8.5500002 12.528 16.955999"
         y="9.9989996"
         id="tspan640">kajoservices</tspan><tspan
         x="2.826 5.3189998 9.2969999 13.959"
         y="19.997999"
         id="tspan642">.com</tspan></text></g></svg>
