<?xml version="1.0" encoding="UTF-8" standalone="no"?>
<!-- Generator: Adobe Illustrator 15.1.0, SVG Export Plug-In . SVG Version: 6.00 Build 0)  -->

<svg
   version="1.1"
   id="Layer_1"
   x="0px"
   y="0px"
   width="289.60031"
   height="112.79971"
   viewBox="0 0 289.6003 112.79972"
   enable-background="new 0 0 409.584 216.372"
   xml:space="preserve"
   xmlns="http://www.w3.org/2000/svg"
   xmlns:svg="http://www.w3.org/2000/svg"><defs
   id="defs73" />
<g
   id="g68"
   transform="translate(-61.48169,-52.53)">
	<path
   fill="#505050"
   d="m 190.639,120.39 c -1.107,0 -1.658,-0.609 -1.658,-1.825 v -43.94 c 0,-1.216 0.551,-1.825 1.658,-1.825 h 3.055 c 1.105,0 1.658,0.609 1.658,1.825 v 40.321 h 22 c 1.219,0 1.826,0.498 1.826,1.494 v 2.455 c 0,0.996 -0.607,1.494 -1.826,1.494 h -26.713 z"
   id="path2" />
	<path
   fill="#505050"
   d="M 223.455,108.243 V 87.037 c 0,-0.996 0.498,-1.493 1.492,-1.493 h 2.855 c 0.994,0 1.492,0.497 1.492,1.493 v 19.613 c 0,4.336 0.719,7.085 2.158,8.246 1.436,1.162 3.217,1.743 5.342,1.743 2.809,0 4.959,-0.857 6.457,-2.571 1.49,-1.715 2.24,-4.653 2.24,-8.812 V 87.037 c 0,-0.996 0.49,-1.493 1.475,-1.493 h 2.82 c 0.984,0 1.479,0.497 1.479,1.493 v 31.858 c 0,0.996 -0.498,1.494 -1.494,1.494 h -2.787 c -0.998,0 -1.492,-0.498 -1.492,-1.494 v -2.654 c -1.459,1.594 -3.027,2.776 -4.705,3.55 -1.68,0.774 -3.73,1.163 -6.148,1.163 -3.873,0 -6.705,-1.134 -8.496,-3.402 -1.791,-2.267 -2.688,-5.371 -2.688,-9.309"
   id="path4" />
	<path
   fill="#505050"
   d="m 257.408,89.924 c -0.996,0 -1.494,-0.387 -1.494,-1.161 v -2.057 c 0,-0.775 0.498,-1.162 1.494,-1.162 h 3.914 V 73.692 c 0,-0.76 0.342,-1.162 0.963,-1.162 h 3.883 c 0.664,0 0.996,0.389 0.996,1.162 v 11.852 h 7.066 c 0.996,0 1.494,0.387 1.494,1.162 v 2.057 c 0,0.774 -0.498,1.161 -1.494,1.161 h -7.066 v 21.14 c 0,2.324 0.348,3.833 1.045,4.529 0.695,0.697 1.531,1.047 2.506,1.047 0.752,0 1.654,-0.222 2.705,-0.664 1.051,-0.441 1.775,-0.818 2.172,-1.129 0.4,-0.31 0.707,-0.21 0.932,0.299 l 1.094,2.556 c 0.176,0.442 0.043,0.796 -0.4,1.062 -0.861,0.51 -2.119,1.001 -3.781,1.478 -1.66,0.475 -3.32,0.712 -4.979,0.712 -2.299,0 -4.064,-0.829 -5.295,-2.488 -1.225,-1.658 -1.84,-4.004 -1.84,-7.035 V 89.924 Z"
   id="path6" />
	<path
   fill="#505050"
   d="m 283.93,120.39 c -0.984,0 -1.475,-0.498 -1.475,-1.494 v -31.86 c 0,-0.995 0.496,-1.494 1.494,-1.494 h 2.787 c 0.996,0 1.492,0.499 1.492,1.494 v 3.982 c 1.074,-1.99 2.334,-3.495 3.789,-4.514 1.453,-1.016 3.266,-1.526 5.432,-1.526 1.434,0 2.438,0.123 3.02,0.366 0.508,0.197 0.697,0.53 0.564,0.995 l -0.766,2.722 c -0.107,0.397 -0.398,0.552 -0.859,0.465 -0.781,-0.154 -1.514,-0.232 -2.203,-0.232 -2.604,0 -4.75,1.168 -6.441,3.5 -1.689,2.334 -2.535,5.516 -2.535,9.542 v 16.56 c 0,0.996 -0.492,1.494 -1.475,1.494 z"
   id="path8" />
	<path
   fill="#505050"
   d="m 303.096,111.098 c 0,-3.939 1.842,-6.825 5.525,-8.663 3.686,-1.836 9.189,-2.908 16.51,-3.219 V 96.96 c 0,-2.08 -0.469,-3.877 -1.408,-5.393 -0.941,-1.517 -2.803,-2.273 -5.594,-2.273 -2.145,0 -3.965,0.31 -5.457,0.93 -1.494,0.619 -2.896,1.658 -4.199,3.117 -0.602,0.664 -1.162,0.698 -1.693,0.101 l -1.727,-1.991 c -0.486,-0.552 -0.32,-1.217 0.5,-1.991 1.811,-1.725 3.938,-2.903 6.371,-3.534 2.436,-0.631 4.502,-0.946 6.205,-0.946 4.625,0 7.922,1.19 9.891,3.568 1.969,2.378 2.953,5.636 2.953,9.774 v 20.574 c 0,0.996 -0.504,1.494 -1.51,1.494 h -3.023 c -0.871,0 -1.309,-0.498 -1.309,-1.494 v -1.625 c -1.746,1.371 -3.455,2.328 -5.125,2.869 -1.672,0.542 -3.537,0.812 -5.594,0.812 -3.629,0 -6.42,-0.867 -8.377,-2.604 -1.961,-1.736 -2.939,-4.154 -2.939,-7.25 m 6.041,-0.201 c 0,2.168 0.516,3.64 1.541,4.414 1.029,0.774 2.66,1.16 4.895,1.16 1.707,0 3.32,-0.164 4.848,-0.496 1.525,-0.332 3.096,-1.206 4.711,-2.622 v -9.79 c -7.545,0.575 -12.096,1.565 -13.654,2.971 -1.562,1.404 -2.341,2.86 -2.341,4.363"
   id="path10" />
	<path
   fill="#505050"
   d="m 188.887,139.188 c 0,-1.78 0.443,-3.178 1.326,-4.187 0.885,-1.011 2.152,-1.517 3.807,-1.517 0.965,0 1.766,0.165 2.396,0.492 0.633,0.33 1.084,0.777 1.357,1.348 0.145,0.297 0.121,0.499 -0.068,0.61 l -0.604,0.352 c -0.201,0.117 -0.383,0.021 -0.539,-0.29 -0.17,-0.32 -0.443,-0.619 -0.826,-0.901 -0.381,-0.279 -0.93,-0.419 -1.639,-0.419 -1.273,0 -2.199,0.396 -2.777,1.188 -0.578,0.791 -0.867,1.898 -0.867,3.323 0,1.425 0.289,2.534 0.867,3.324 0.578,0.792 1.504,1.188 2.777,1.188 0.732,0 1.316,-0.168 1.756,-0.504 0.441,-0.336 0.762,-0.687 0.959,-1.053 0.156,-0.296 0.34,-0.386 0.549,-0.268 l 0.633,0.358 c 0.188,0.106 0.199,0.31 0.047,0.61 -0.299,0.586 -0.789,1.072 -1.465,1.462 -0.678,0.39 -1.529,0.585 -2.557,0.585 -1.654,0 -2.922,-0.507 -3.807,-1.516 -0.882,-1.007 -1.325,-2.403 -1.325,-4.185"
   id="path12" />
	<path
   fill="#505050"
   d="m 204.729,139.188 c 0,-1.78 0.438,-3.178 1.316,-4.187 0.879,-1.011 2.143,-1.517 3.799,-1.517 1.654,0 2.92,0.506 3.797,1.517 0.879,1.009 1.318,2.406 1.318,4.187 0,1.781 -0.439,3.178 -1.318,4.188 -0.877,1.009 -2.143,1.516 -3.797,1.516 -1.656,0 -2.92,-0.507 -3.799,-1.516 -0.879,-1.01 -1.316,-2.406 -1.316,-4.188 m 1.564,0 c 0,1.425 0.297,2.534 0.877,3.324 0.588,0.792 1.479,1.188 2.674,1.188 1.195,0 2.088,-0.396 2.672,-1.188 0.586,-0.79 0.879,-1.899 0.879,-3.324 0,-1.425 -0.293,-2.532 -0.879,-3.323 -0.584,-0.792 -1.477,-1.188 -2.672,-1.188 -1.195,0 -2.086,0.396 -2.674,1.188 -0.58,0.791 -0.877,1.899 -0.877,3.323"
   id="path14" />
	<path
   fill="#505050"
   d="m 222.719,144.661 c -0.254,0 -0.383,-0.14 -0.383,-0.42 v -10.106 c 0,-0.28 0.125,-0.42 0.379,-0.42 h 0.969 c 0.355,0 0.607,0.127 0.762,0.382 l 4.793,8.008 h 0.014 c -0.01,-0.204 -0.014,-0.406 -0.014,-0.61 v -7.359 c 0,-0.28 0.129,-0.42 0.385,-0.42 h 0.709 c 0.258,0 0.385,0.14 0.385,0.42 v 10.106 c 0,0.28 -0.127,0.42 -0.381,0.42 h -0.672 c -0.354,0 -0.611,-0.127 -0.764,-0.381 l -5.1,-8.497 h -0.016 c 0.012,0.205 0.016,0.409 0.016,0.611 v 7.847 c 0,0.28 -0.127,0.42 -0.381,0.42 h -0.701 z"
   id="path16" />
	<path
   fill="#505050"
   d="m 238.281,143.837 c -0.271,-0.244 -0.342,-0.458 -0.215,-0.641 l 0.395,-0.574 c 0.137,-0.199 0.361,-0.183 0.668,0.047 0.4,0.3 0.82,0.548 1.254,0.74 0.436,0.194 0.961,0.291 1.586,0.291 0.455,0 0.844,-0.07 1.16,-0.207 0.314,-0.137 0.566,-0.334 0.758,-0.592 0.192,-0.258 0.283,-0.569 0.283,-0.936 0,-0.266 -0.035,-0.512 -0.113,-0.738 -0.082,-0.227 -0.205,-0.416 -0.379,-0.568 -0.176,-0.154 -0.355,-0.273 -0.543,-0.36 -0.311,-0.139 -0.775,-0.302 -1.395,-0.485 -0.615,-0.184 -1.158,-0.382 -1.621,-0.596 -0.459,-0.222 -0.824,-0.49 -1.094,-0.804 -0.273,-0.313 -0.453,-0.638 -0.541,-0.971 -0.092,-0.332 -0.137,-0.709 -0.137,-1.132 0,-0.645 0.189,-1.201 0.566,-1.668 0.375,-0.467 0.838,-0.776 1.385,-0.929 0.547,-0.153 1.104,-0.229 1.67,-0.229 0.645,0 1.205,0.084 1.686,0.252 0.477,0.165 0.906,0.382 1.281,0.652 0.266,0.187 0.328,0.384 0.186,0.592 l -0.391,0.559 c -0.117,0.168 -0.346,0.133 -0.688,-0.107 -0.26,-0.182 -0.576,-0.355 -0.951,-0.516 -0.371,-0.16 -0.742,-0.241 -1.109,-0.241 -0.469,0 -0.855,0.056 -1.17,0.166 -0.309,0.108 -0.553,0.294 -0.732,0.554 -0.178,0.259 -0.268,0.559 -0.268,0.9 0,0.215 0.023,0.412 0.064,0.592 0.039,0.182 0.145,0.365 0.311,0.555 0.17,0.189 0.373,0.334 0.609,0.435 0.322,0.139 0.82,0.3 1.494,0.485 0.674,0.185 1.264,0.414 1.768,0.684 0.467,0.25 0.805,0.512 1.01,0.783 0.207,0.273 0.369,0.569 0.482,0.887 0.117,0.318 0.172,0.677 0.172,1.074 0,0.723 -0.186,1.326 -0.557,1.81 -0.371,0.484 -0.811,0.82 -1.322,1.009 -0.508,0.188 -1.146,0.283 -1.914,0.283 -0.924,0 -1.688,-0.107 -2.293,-0.321 -0.605,-0.214 -1.054,-0.461 -1.355,-0.735"
   id="path18" />
	<path
   fill="#505050"
   d="m 252.938,140.486 v -6.352 c 0,-0.28 0.127,-0.42 0.383,-0.42 h 0.701 c 0.254,0 0.383,0.14 0.383,0.42 v 6.122 c 0,1.426 0.199,2.355 0.605,2.79 0.404,0.436 1.064,0.653 1.98,0.653 0.916,0 1.576,-0.218 1.98,-0.653 0.406,-0.435 0.607,-1.364 0.607,-2.79 v -6.122 c 0,-0.28 0.129,-0.42 0.383,-0.42 h 0.703 c 0.252,0 0.381,0.14 0.381,0.42 v 6.352 c 0,1.612 -0.371,2.751 -1.111,3.412 -0.74,0.661 -1.721,0.993 -2.943,0.993 -1.221,0 -2.201,-0.332 -2.943,-0.993 -0.738,-0.661 -1.109,-1.799 -1.109,-3.412"
   id="path20" />
	<path
   fill="#505050"
   d="m 269.326,144.661 c -0.252,0 -0.381,-0.14 -0.381,-0.42 v -10.106 c 0,-0.28 0.129,-0.42 0.381,-0.42 h 0.703 c 0.256,0 0.381,0.14 0.381,0.42 v 9.274 h 5.062 c 0.279,0 0.422,0.114 0.422,0.344 v 0.565 c 0,0.229 -0.143,0.343 -0.422,0.343 z"
   id="path22" />
	<path
   fill="#505050"
   d="m 280.773,135.028 c -0.293,0 -0.436,-0.115 -0.436,-0.344 v -0.625 c 0,-0.23 0.143,-0.345 0.434,-0.345 h 8.326 c 0.287,0 0.432,0.114 0.432,0.345 v 0.625 c 0,0.229 -0.145,0.344 -0.436,0.344 h -3.428 v 9.213 c 0,0.28 -0.127,0.42 -0.383,0.42 h -0.703 c -0.254,0 -0.381,-0.14 -0.381,-0.42 v -9.213 z"
   id="path24" />
	<path
   fill="#505050"
   d="m 296.709,144.661 c -0.256,0 -0.383,-0.14 -0.383,-0.42 v -10.106 c 0,-0.28 0.127,-0.42 0.383,-0.42 h 0.703 c 0.254,0 0.381,0.14 0.381,0.42 v 10.106 c 0,0.28 -0.127,0.42 -0.381,0.42 z"
   id="path26" />
	<path
   fill="#505050"
   d="m 306.094,144.661 c -0.252,0 -0.381,-0.14 -0.381,-0.42 v -10.106 c 0,-0.28 0.127,-0.42 0.379,-0.42 h 0.969 c 0.352,0 0.605,0.127 0.762,0.382 l 4.791,8.008 h 0.016 c -0.01,-0.204 -0.016,-0.406 -0.016,-0.61 v -7.359 c 0,-0.28 0.129,-0.42 0.387,-0.42 h 0.709 c 0.258,0 0.385,0.14 0.385,0.42 v 10.106 c 0,0.28 -0.125,0.42 -0.381,0.42 h -0.67 c -0.355,0 -0.611,-0.127 -0.766,-0.381 l -5.098,-8.497 h -0.018 c 0.01,0.205 0.018,0.409 0.018,0.611 v 7.847 c 0,0.28 -0.129,0.42 -0.383,0.42 h -0.703 z"
   id="path28" />
	<path
   fill="#505050"
   d="m 321.48,139.188 c 0,-1.78 0.461,-3.178 1.385,-4.187 0.918,-1.011 2.201,-1.517 3.838,-1.517 0.982,0 1.781,0.171 2.404,0.508 0.621,0.338 1.074,0.736 1.365,1.195 0.182,0.285 0.176,0.491 -0.008,0.618 l -0.572,0.397 c -0.188,0.132 -0.375,0.052 -0.564,-0.236 -0.152,-0.23 -0.439,-0.502 -0.861,-0.817 -0.422,-0.314 -0.984,-0.474 -1.688,-0.474 -1.248,0 -2.18,0.396 -2.801,1.188 -0.623,0.791 -0.934,1.898 -0.934,3.323 0,1.425 0.305,2.534 0.91,3.324 0.605,0.792 1.57,1.188 2.9,1.188 0.66,0 1.236,-0.08 1.727,-0.241 0.496,-0.16 0.838,-0.383 1.037,-0.668 v -2.021 h -2.268 c -0.279,0 -0.42,-0.116 -0.42,-0.345 v -0.564 c 0,-0.229 0.141,-0.344 0.42,-0.344 h 3.312 c 0.283,0 0.42,0.114 0.42,0.344 v 3.603 c -0.621,0.454 -1.24,0.805 -1.863,1.055 -0.619,0.247 -1.434,0.374 -2.441,0.374 -1.68,0 -2.982,-0.507 -3.908,-1.516 -0.927,-1.009 -1.39,-2.405 -1.39,-4.187"
   id="path30" />
	<g
   id="g48">
		<g
   id="g34">
			<path
   fill="#dda472"
   d="M 128.582,83.138 121.863,72.98 c -0.297,-0.449 -0.76,-0.493 -1.096,-0.143 v 22.431 c 0.336,0.351 0.799,0.306 1.096,-0.143 l 6.719,-10.159 c 0.33,-0.503 0.33,-1.325 0,-1.828 z"
   id="path32" />
		</g>
		<g
   id="g38">
			<path
   fill="#dda472"
   d="m 139.957,133.201 -18.061,-25.254 c -0.307,-0.425 -0.777,-0.481 -1.129,-0.168 v 37.495 c 0.479,0.113 1.045,0.054 1.43,-0.176 l 17.457,-10.442 c 0.518,-0.309 0.655,-0.964 0.303,-1.455 z"
   id="path36" />
		</g>
		<g
   id="g42">
			<path
   fill="#dda472"
   d="m 149.65,96.218 c 0.453,-0.399 0.666,-1.194 0.473,-1.766 l -3.857,-11.551 c -0.191,-0.573 -0.717,-0.713 -1.17,-0.313 l -9.117,8.073 c -0.453,0.4 -0.664,1.194 -0.473,1.767 l 3.859,11.551 c 0.191,0.572 0.717,0.712 1.168,0.312 z"
   id="path40" />
		</g>
		<g
   id="g46">
			<path
   fill="#dda472"
   d="m 160.27,105.989 c -0.035,-0.603 -0.506,-0.875 -1.047,-0.604 l -10.896,5.439 c -0.539,0.27 -0.951,0.982 -0.914,1.584 l 0.738,12.156 c 0.037,0.601 0.508,0.874 1.049,0.604 l 10.895,-5.438 c 0.539,-0.27 0.949,-0.983 0.914,-1.584 z"
   id="path44" />
		</g>
	</g>
	<g
   id="g66">
		<g
   id="g52">
			<path
   fill="#b0815b"
   d="m 121.211,72.604 c -0.211,0.01 -0.42,0.132 -0.582,0.375 l -6.717,10.158 c -0.332,0.503 -0.332,1.325 0,1.828 l 6.717,10.159 c 0.162,0.242 0.371,0.364 0.582,0.375 z"
   id="path50" />
		</g>
		<g
   id="g56">
			<path
   fill="#b0815b"
   d="m 106.988,92.428 c 0.191,-0.572 -0.025,-1.366 -0.475,-1.767 l -9.119,-8.073 c -0.451,-0.399 -0.975,-0.26 -1.168,0.313 l -3.857,11.551 c -0.193,0.571 0.02,1.366 0.473,1.766 l 9.117,8.073 c 0.453,0.399 0.977,0.26 1.166,-0.312 z"
   id="path54" />
		</g>
		<g
   id="g60">
			<path
   fill="#b0815b"
   d="m 81.484,118.146 c -0.037,0.603 0.375,1.314 0.914,1.585 l 10.895,5.438 c 0.541,0.271 1.012,-0.003 1.049,-0.604 l 0.738,-12.156 c 0.035,-0.602 -0.377,-1.314 -0.914,-1.584 L 83.27,105.387 c -0.541,-0.271 -1.012,0.002 -1.047,0.604 z"
   id="path58" />
		</g>
		<g
   id="g64">
			<path
   fill="#b0815b"
   d="m 121.211,107.583 c -0.223,0.007 -0.445,0.127 -0.617,0.364 l -18.061,25.254 c -0.354,0.491 -0.217,1.146 0.301,1.455 l 17.459,10.442 c 0.254,0.152 0.584,0.227 0.918,0.23 z"
   id="path62" />
		</g>
	</g>
</g>
</svg>
