<?xml version="1.0" encoding="utf-8"?>
<!-- Generator: Adobe Illustrator 27.8.1, SVG Export Plug-In . SVG Version: 6.00 Build 0)  -->
<svg version="1.1" id="Ebene_1" xmlns="http://www.w3.org/2000/svg" xmlns:xlink="http://www.w3.org/1999/xlink" x="0px" y="0px"
	 viewBox="0 0 352.8 89.7" style="enable-background:new 0 0 352.8 89.7;" xml:space="preserve">
<style type="text/css">
	.st0{fill:#80CC28;}
	.st1{fill:#FFFFFF;stroke:#FFFFFF;stroke-width:0.25;stroke-miterlimit:10;}
	.st2{fill:#4A6FAE;}
	.st3{fill:#FFFFFF;}
</style>
<path class="st0" d="M48.7,59.1c0,0-1.7,2.4-3.2,3.6c0,0,0.9,1.4,2.1,2c0.4,0.2,1.9,1.1,2.7,2.7s1,3.8,0,5.7c-1,1.8-2.4,2.9-3.7,3.2
	c-1.3,0.4-2.2,0.6-4.5-0.1c0,0-1.6,2.3-2.1,2.6c0,0,0,0.8,0.1,1c0,0,2.6,0.3,4.3,2.2s1.5,4,1.2,5.4h303.9V59L48.7,59.1z"/>
<g>
	<path class="st1" d="M220.3,79.3h-1.1V68.2h1.1v5.7c0.7-0.9,1.7-1,2.2-1c2,0,3.1,1.6,3.1,3.4c0,1.7-1.1,3.3-3,3.3
		c-1,0-1.7-0.5-2.2-1.1V79.3z M224.4,76.2c0-1.6-1.1-2.4-2.1-2.4c-1,0-2.1,0.8-2.1,2.4c0,1.3,0.8,2.4,2.1,2.4
		C223.6,78.5,224.4,77.5,224.4,76.2z"/>
	<path class="st1" d="M229.2,78.7l-2.9-5.7h1.3l2.2,4.5l2.1-4.5h1.2l-4.7,9.8h-1.2L229.2,78.7z"/>
</g>
<g id="text920_00000064334255281760154400000002193684570966762940_">
	<path id="path829_00000059267823428671167260000002160612284820173706_" class="st2" d="M90.8,28.8c0,1.7-0.2,3.3-0.5,4.8
		c-0.3,1.5-0.8,2.9-1.5,4.3c-0.6,1.3-1.4,2.5-2.3,3.7c-0.9,1.1-2,2.1-3.2,2.9l9.5,10.3H87c-0.8,0-1.6-0.1-2.2-0.3
		c-0.7-0.2-1.3-0.6-1.8-1.2l-5.5-6c-0.9,0.2-1.8,0.4-2.7,0.5c-0.9,0.1-1.9,0.2-2.9,0.2c-2.8,0-5.4-0.5-7.7-1.4c-2.3-1-4.3-2.3-6-4
		c-1.6-1.7-2.9-3.7-3.8-6c-0.9-2.3-1.4-4.9-1.4-7.6s0.5-5.3,1.4-7.6c0.9-2.3,2.2-4.4,3.8-6.1c1.7-1.7,3.7-3,6-4
		c2.3-1,4.9-1.4,7.7-1.4s5.4,0.5,7.7,1.4s4.3,2.3,6,4c1.6,1.7,2.9,3.7,3.8,6C90.4,23.6,90.8,26.1,90.8,28.8L90.8,28.8z M83.7,28.8
		c0-2-0.3-3.9-0.8-5.5c-0.5-1.6-1.3-3-2.3-4.1c-1-1.1-2.3-2-3.7-2.6c-1.4-0.6-3.1-0.9-4.9-0.9S68.5,16,67,16.6
		c-1.5,0.6-2.7,1.5-3.7,2.6c-1,1.1-1.8,2.5-2.3,4.1c-0.5,1.6-0.8,3.4-0.8,5.5s0.3,3.9,0.8,5.5c0.5,1.6,1.3,3,2.3,4.1
		c1,1.1,2.3,2,3.7,2.6c1.5,0.6,3.1,0.9,4.9,0.9c1.8,0,3.5-0.3,4.9-0.9c1.5-0.6,2.7-1.5,3.7-2.6c1-1.1,1.8-2.5,2.3-4.1
		C83.4,32.7,83.7,30.9,83.7,28.8L83.7,28.8z"/>
	<path id="path831_00000005232047377027711170000003570186631751119286_" class="st2" d="M120.8,10.2v5.5h-16.5v11h13.9v5.5h-13.9
		v15.2h-7V10.2H120.8z"/>
	<path id="path833_00000080909606428352336580000003425736476525948839_" class="st2" d="M133.7,21v26.4h-6.4V21H133.7z M134.7,13.3
		c0,0.5-0.1,1.1-0.3,1.5c-0.2,0.5-0.5,0.9-0.9,1.3c-0.4,0.4-0.8,0.7-1.3,0.9c-0.5,0.2-1,0.3-1.6,0.3c-0.5,0-1.1-0.1-1.6-0.3
		c-0.5-0.2-0.9-0.5-1.3-0.9s-0.7-0.8-0.9-1.3c-0.2-0.5-0.3-1-0.3-1.5c0-0.6,0.1-1.1,0.3-1.6c0.2-0.5,0.5-0.9,0.9-1.3
		c0.4-0.4,0.8-0.6,1.3-0.9c0.5-0.2,1-0.3,1.6-0.3c0.6,0,1.1,0.1,1.6,0.3c0.5,0.2,0.9,0.5,1.3,0.9c0.4,0.4,0.7,0.8,0.9,1.3
		C134.5,12.2,134.7,12.8,134.7,13.3z"/>
	<path id="path835_00000016783742133611862180000000975252101212977590_" class="st2" d="M152.8,20.6c1.7,0,3.2,0.3,4.6,0.8
		c1.4,0.5,2.6,1.3,3.6,2.3c1,1,1.8,2.3,2.4,3.8c0.6,1.5,0.9,3.2,0.9,5.1c0,0.5,0,0.9-0.1,1.2c0,0.3-0.1,0.6-0.2,0.7
		c-0.1,0.2-0.2,0.3-0.4,0.4c-0.2,0.1-0.4,0.1-0.7,0.1h-16.3c0.2,2.7,0.9,4.7,2.2,6s3,1.9,5.1,1.9c1,0,1.9-0.1,2.7-0.4
		c0.8-0.2,1.4-0.5,2-0.8c0.6-0.3,1.1-0.6,1.5-0.8c0.4-0.2,0.8-0.4,1.2-0.4c0.3,0,0.5,0.1,0.7,0.2c0.2,0.1,0.4,0.2,0.5,0.4l1.9,2.3
		c-0.7,0.8-1.5,1.5-2.4,2.1c-0.9,0.5-1.8,1-2.8,1.3c-0.9,0.3-1.9,0.6-2.9,0.7c-1,0.1-1.9,0.2-2.9,0.2c-1.8,0-3.5-0.3-5.1-0.9
		c-1.6-0.6-3-1.5-4.1-2.7c-1.2-1.2-2.1-2.7-2.8-4.4c-0.7-1.8-1-3.8-1-6.1c0-1.8,0.3-3.5,0.9-5.1c0.6-1.6,1.4-3,2.5-4.1
		c1.1-1.2,2.4-2.1,4-2.8C149.1,21,150.9,20.6,152.8,20.6z M153,25.2c-1.9,0-3.3,0.5-4.4,1.6c-1,1-1.7,2.5-2,4.5h12
		c0-0.8-0.1-1.6-0.3-2.3c-0.2-0.7-0.6-1.4-1-1.9c-0.5-0.5-1-1-1.8-1.3C154.7,25.3,153.9,25.2,153,25.2L153,25.2z"/>
	<path id="path837_00000168084551061311334200000008603569510162855563_" class="st2" d="M177.3,9.2v38.3h-6.4V9.2H177.3z"/>
	<path id="path839_00000012439558801585164490000001147337942818534560_" class="st2" d="M204.1,47.5c-0.8,0-1.4-0.4-1.6-1.2
		l-0.5-2.6c-0.5,0.6-1.1,1.2-1.7,1.7c-0.6,0.5-1.3,0.9-2,1.3c-0.7,0.4-1.4,0.6-2.2,0.8c-0.8,0.2-1.6,0.3-2.6,0.3
		c-1.4,0-2.8-0.3-4-0.9c-1.2-0.6-2.2-1.5-3.1-2.6c-0.9-1.2-1.5-2.6-2-4.3c-0.5-1.7-0.7-3.6-0.7-5.8c0-2,0.3-3.8,0.8-5.5
		c0.5-1.7,1.3-3.1,2.3-4.4c1-1.2,2.2-2.2,3.6-2.9c1.4-0.7,3-1.1,4.7-1.1c1.5,0,2.7,0.2,3.8,0.7c1,0.5,2,1.1,2.8,1.9v-14h6.4v38.3
		H204.1z M195.6,42.8c1.3,0,2.4-0.3,3.4-0.8c0.9-0.5,1.8-1.3,2.6-2.3V27.8c-0.7-0.9-1.5-1.5-2.4-1.9c-0.8-0.4-1.8-0.5-2.7-0.5
		c-1,0-1.8,0.2-2.6,0.5c-0.8,0.4-1.4,0.9-2,1.6c-0.5,0.7-0.9,1.6-1.2,2.8c-0.3,1.1-0.4,2.4-0.4,4c0,1.5,0.1,2.9,0.4,3.9
		c0.3,1.1,0.6,1.9,1.1,2.6c0.5,0.7,1,1.2,1.7,1.5C194,42.6,194.8,42.8,195.6,42.8L195.6,42.8z"/>
	<path id="path841_00000031930415880065775110000004895681770875907756_" class="st2" d="M241.9,38.7c0.4,0,0.7,0.1,1,0.4l2.7,3
		c-1.5,1.9-3.4,3.3-5.6,4.3c-2.2,1-4.8,1.5-7.9,1.5c-2.8,0-5.3-0.5-7.5-1.4c-2.2-0.9-4.1-2.3-5.6-3.9c-1.6-1.7-2.8-3.7-3.6-6
		c-0.8-2.3-1.2-4.9-1.2-7.7c0-2.8,0.5-5.4,1.4-7.7c0.9-2.3,2.2-4.3,3.9-6c1.7-1.7,3.7-3,6-3.9c2.4-0.9,4.9-1.4,7.8-1.4
		c2.8,0,5.2,0.4,7.2,1.3c2.1,0.9,3.9,2,5.3,3.5l-2.3,3.2c-0.1,0.2-0.3,0.4-0.5,0.5c-0.2,0.2-0.5,0.2-0.9,0.2c-0.4,0-0.8-0.2-1.2-0.5
		c-0.4-0.3-0.9-0.6-1.6-1c-0.6-0.4-1.4-0.7-2.4-1c-1-0.3-2.2-0.5-3.7-0.5c-1.8,0-3.4,0.3-4.8,0.9c-1.5,0.6-2.7,1.5-3.8,2.6
		c-1,1.1-1.9,2.5-2.5,4.1c-0.6,1.6-0.9,3.4-0.9,5.5c0,2.1,0.3,4,0.9,5.6c0.6,1.6,1.4,3,2.4,4.1c1,1.1,2.2,2,3.6,2.6
		c1.4,0.6,2.9,0.9,4.4,0.9c0.9,0,1.8-0.1,2.6-0.2c0.8-0.1,1.5-0.3,2.1-0.5c0.7-0.2,1.3-0.5,1.8-0.9c0.6-0.4,1.2-0.8,1.7-1.3
		c0.2-0.2,0.4-0.3,0.5-0.4C241.4,38.7,241.6,38.7,241.9,38.7L241.9,38.7z"/>
	<path id="path843_00000016070040524063179940000009279748383942636694_" class="st2" d="M258.2,9.2v38.3h-6.4V9.2H258.2z"/>
	<path id="path845_00000069395138131730399100000009135276277532254124_" class="st2" d="M277.8,20.6c2,0,3.8,0.3,5.4,1
		c1.6,0.6,3,1.5,4.1,2.7c1.1,1.2,2,2.6,2.6,4.3c0.6,1.7,0.9,3.6,0.9,5.6c0,2.1-0.3,4-0.9,5.7c-0.6,1.7-1.5,3.1-2.6,4.3
		c-1.1,1.2-2.5,2.1-4.1,2.7c-1.6,0.6-3.4,1-5.4,1s-3.8-0.3-5.4-1s-3-1.5-4.1-2.7c-1.1-1.2-2-2.6-2.7-4.3c-0.6-1.7-0.9-3.6-0.9-5.7
		c0-2.1,0.3-4,0.9-5.6c0.6-1.7,1.5-3.1,2.7-4.3c1.2-1.2,2.5-2.1,4.1-2.7S275.8,20.6,277.8,20.6L277.8,20.6z M277.8,43
		c2.2,0,3.8-0.7,4.9-2.2c1.1-1.5,1.6-3.6,1.6-6.5s-0.5-5-1.6-6.5c-1-1.5-2.7-2.2-4.9-2.2c-2.2,0-3.9,0.8-4.9,2.3
		c-1.1,1.5-1.6,3.7-1.6,6.5s0.5,5,1.6,6.5C273.9,42.2,275.5,43,277.8,43z"/>
	<path id="path847_00000040551809475544451260000006739495346926027688_" class="st2" d="M302.6,21v16.8c0,1.6,0.4,2.9,1.1,3.8
		c0.8,0.9,1.9,1.3,3.4,1.3c1.1,0,2.1-0.2,3.1-0.7c1-0.5,1.9-1.2,2.7-2V21h6.4v26.4h-3.9c-0.8,0-1.4-0.4-1.6-1.2l-0.4-2.1
		c-0.5,0.5-1.1,1.1-1.7,1.5c-0.6,0.4-1.2,0.8-1.9,1.2c-0.7,0.3-1.4,0.5-2.1,0.7c-0.8,0.2-1.6,0.3-2.4,0.3c-1.4,0-2.7-0.2-3.8-0.7
		c-1.1-0.5-2-1.2-2.8-2.1c-0.8-0.9-1.3-1.9-1.7-3.2c-0.4-1.2-0.6-2.6-0.6-4.1V21L302.6,21z"/>
	<path id="path849_00000033347017298016849630000005042898621263074198_" class="st2" d="M345.7,47.5c-0.8,0-1.4-0.4-1.6-1.2
		l-0.5-2.6c-0.5,0.6-1.1,1.2-1.7,1.7c-0.6,0.5-1.3,0.9-2,1.3c-0.7,0.4-1.4,0.6-2.2,0.8c-0.8,0.2-1.6,0.3-2.6,0.3
		c-1.4,0-2.8-0.3-4-0.9c-1.2-0.6-2.2-1.5-3.1-2.6c-0.9-1.2-1.5-2.6-2-4.3c-0.5-1.7-0.7-3.6-0.7-5.8c0-2,0.3-3.8,0.8-5.5
		c0.5-1.7,1.3-3.1,2.3-4.4c1-1.2,2.2-2.2,3.6-2.9c1.4-0.7,3-1.1,4.7-1.1c1.5,0,2.7,0.2,3.8,0.7c1,0.5,2,1.1,2.8,1.9v-14h6.4v38.3
		H345.7z M337.2,42.8c1.3,0,2.4-0.3,3.4-0.8c0.9-0.5,1.8-1.3,2.6-2.3V27.8c-0.7-0.9-1.5-1.5-2.4-1.9c-0.8-0.4-1.8-0.5-2.7-0.5
		c-1,0-1.8,0.2-2.6,0.5c-0.8,0.4-1.4,0.9-2,1.6c-0.5,0.7-0.9,1.6-1.2,2.8c-0.3,1.1-0.4,2.4-0.4,4c0,1.5,0.1,2.9,0.4,3.9
		c0.3,1.1,0.6,1.9,1.1,2.6c0.5,0.7,1,1.2,1.7,1.5C335.7,42.6,336.4,42.8,337.2,42.8L337.2,42.8z"/>
</g>
<g id="g1069_00000085251670631660793760000006017339812299984522_" transform="translate(-199.36,-53.263789)">
	<path id="path922_00000123428056039517114220000000814832855410108043_" class="st2" d="M223.4,92.5c0-1.7-1.4-3.1-3.1-3.1
		c-1.7,0-3.1,1.4-3.1,3.1c0,1.7,1.4,3.1,3.1,3.1c0,0,0,0,0,0C222,95.5,223.4,94.2,223.4,92.5z"/>
	<path id="path924_00000169546059315946119690000013374670235560709505_" class="st2" d="M228.3,92.5c0,1.7,1.4,3.1,3.1,3.1
		c1.7,0,3.1-1.4,3.1-3.1c0-1.7-1.4-3.1-3.1-3.1C229.7,89.4,228.3,90.8,228.3,92.5L228.3,92.5z"/>
	<path id="path926_00000032610737412087877200000005796516376633461383_" class="st2" d="M203.4,103.8c0.9,2.3,2.2,4.4,3.7,6.3
		c4.6,5.5,11.5,8.7,18.7,8.7c6.6,0,12.9-2.6,17.6-7.3c2.5-2.7,4.4-5.9,5.6-9.4c0.1-0.4-0.1-0.9-0.5-1c-0.2-0.1-0.5,0-0.6,0.1
		c-6.6,3.7-15,1.4-18.7-5.2c-3.7-6.6-1.4-15,5.2-18.7c1.2-0.7,2.5-1.2,3.9-1.5c0.4-0.1,0.7-0.5,0.6-1c0-0.2-0.2-0.4-0.4-0.5
		c-2.3-1.4-4.9-2.4-7.5-3c-0.8-3.4-1.9-5.4-3-7.2c-1.2-2-2.5-3.9-4-5.7c-0.5-0.9-1.2-1.7-2.2-2.1c-2.1-1.1-4.4-0.6-5.2,0.9
		c-0.8,1.6,0.2,3.7,2.3,4.8c0.1,0.1,0.2,0.1,0.4,0.2l0,0c0.5,0.2,0.9,0.3,1.4,0.4c1.2,0.4,2.4,1.1,3.3,2c1.1,1,3.2,4.5,3.4,6.4
		c-0.5,0-1,0-1.5,0c-0.7,0-1.4,0-2.2,0.1c-2.1-2.7-3.8-4.6-5.5-5.9c-1.8-1.5-4.2-3.2-5.1-3.6l0,0c-0.8-0.5-1.7-0.7-2.7-0.7
		c-2.3,0-4.2,1.4-4.2,3.2c0,1.8,1.9,3.2,4.2,3.2c0.3,0,0.7,0,1-0.1l0,0h0c0.3-0.1,0.7-0.2,1-0.3c0.7-0.2,1.5-0.2,2.2,0
		c1.4,0.4,5.7,3.5,5.3,4.9c-2.4,0.6-4.6,1.5-6.7,2.8c-0.4,0.2-0.5,0.7-0.3,1.1c0.1,0.2,0.3,0.3,0.5,0.4c7.4,1.6,12.2,8.9,10.6,16.3
		c-1.6,7.4-8.9,12.2-16.3,10.6c-1.4-0.3-2.7-0.8-3.9-1.5c-0.4-0.2-0.9-0.1-1.1,0.3c-0.1,0.1-0.1,0.2-0.1,0.3
		C202.9,102.5,203.1,103.2,203.4,103.8z"/>
	<path id="path928_00000119833158567676717580000000750098117875155089_" class="st2" d="M239.2,136.9c-0.2,0-1.5-0.1-1.5-0.1
		c-2-0.2-2.6-4.9-2.7-6.6c1.2-0.9,2.2-2,3-3.1c-7.7,3.6-16.6,3.7-24.4,0.2c0.8,1.1,1.8,2.1,2.9,3c-0.1,1.7-0.7,6.3-2.7,6.6
		c0,0-1.2,0-1.5,0.1c-1.2,0.3-2,1-2,1.9c0,1.1,1.3,2,2.9,2c0,0,3.5,0.3,4.3-0.3c0.8-0.6,1.2-1.2,1-4.1c-0.1-2.9,2.4-3.6,2.5-3.8
		c1.5,0.5,3,4,4.6,4s3.2-3.5,4.6-4c0.1,0.1,2.7,0.9,2.5,3.8c-0.1,2.9,0.3,3.4,1,4.1s4.3,0.3,4.3,0.3c1.6,0,2.9-0.9,2.9-2
		C241.3,137.9,240.4,137.1,239.2,136.9L239.2,136.9z"/>
	<path id="path930_00000042015687529386357900000010489459146696278921_" class="st2" d="M245.3,121.4L245.3,121.4L245.3,121.4
		c-0.1,0-0.1-0.1-0.2-0.1c-2.1-1.3-3.2-2.6-3.8-3.6c-9.2,7-21.9,7-31.2,0.1c-0.6,1-1.7,2.3-3.7,3.5c0,0-0.1,0.1-0.1,0.1h0l0,0
		c-1,0.7-1.4,2-0.7,3.1c0.7,1,2,1.4,3.1,0.7c0.5-0.3,0.8-0.8,1-1.3c0.2-0.6,0.4-1.4,0.8-2.3l0.6,0.3c4.1,2.6,9.8,4.3,14.6,4.3
		c5.1,0,10.7-1.8,14.9-4.6l0.4-0.3c0.4,0.8,0.7,1.7,0.9,2.6c0.3,1.2,1.5,1.9,2.7,1.6c1.2-0.3,1.9-1.5,1.6-2.7
		C246.1,122.2,245.8,121.7,245.3,121.4L245.3,121.4z"/>
</g>
<g>
	<path class="st3" d="M246.5,66.1C246.5,66.1,246.5,66.1,246.5,66.1c-4.2,0-7.6,3.4-7.6,7.7c0,4.2,3.4,7.6,7.6,7.6
		c4.2,0,7.6-3.4,7.6-7.6c0-2-0.8-3.9-2.2-5.4S248.5,66.1,246.5,66.1z M251.5,73.7c0,2.8-2.2,5-5,5c-2.8,0-5-2.2-5-5
		c0-2.9,2.1-5.1,5-5.1C249.3,68.6,251.5,70.8,251.5,73.7z"/>
	<path class="st3" d="M258.8,66.4h-2.7V81h2.6v-5.7h0.7c3,0,5-1.7,5-4.5c0-1.4-0.6-2.7-1.6-3.5C261.9,66.6,261,66.4,258.8,66.4z
		 M262,70.8c0,1.4-0.8,2-2.7,2h-0.5v-3.9h0.4C261.7,68.9,262,69.9,262,70.8z"/>
	<polygon class="st3" points="266,81 274.3,81 274.3,78.5 268.7,78.5 268.7,74.3 274.1,74.3 274.1,71.8 268.7,71.8 268.7,68.9 
		274.3,68.9 274.3,66.4 266,66.4 	"/>
	<polygon class="st3" points="286.7,75.8 276.5,65 276.5,81 279.1,81 279.1,71.5 289.3,82.3 289.3,66.4 286.7,66.4 	"/>
	<path class="st3" d="M299.6,75.1h4.9c-0.1,1-0.2,1.6-0.6,2.2c-0.9,1.5-3,2.6-4.9,2.6c-3.3,0-6.1-2.8-6.1-6.1c0-3.4,2.8-6.2,6.1-6.2
		c1.4,0,2.9,0.5,3.9,1.4c0.4,0.3,0.7,0.7,1.3,1.5l0.2,0.2l1.1-0.9l-0.2-0.2c-1.9-2.4-3.8-3.4-6.3-3.4c-4.2,0-7.6,3.4-7.6,7.6
		c0,4.1,3.4,7.5,7.5,7.5c2.5,0,5-1.3,6.2-3.2c0.7-1.1,0.9-2.1,0.9-4v-0.3h-6.4V75.1z"/>
	<rect x="308.4" y="66.4" class="st3" width="1.4" height="14.7"/>
	<path class="st3" d="M319.7,73.9c-0.7-0.4-1.1-0.6-2.8-1.5c-2-1-2.3-1.5-2.3-2.5c0-1.4,1-2.4,2.4-2.4c1.1,0,1.8,0.4,2.5,1.6
		l0.2,0.2l1.1-0.9l-0.1-0.2c-0.8-1.4-2.1-2.1-3.6-2.1c-2.2,0-3.9,1.6-3.9,3.7c0,1.7,0.7,2.5,2.9,3.7l1.2,0.6
		c0.6,0.3,1.1,0.6,1.4,0.7c0.8,0.5,1.2,1.1,1.2,1.9c0,1.7-1.4,3.1-3.2,3.1c-1.5,0-2.3-0.6-3.1-2.4l-0.1-0.2l-1.2,0.6l0.1,0.2
		c0.9,2.1,2.3,3.2,4.4,3.2c2.5,0,4.6-2,4.6-4.4C321.3,75.6,320.7,74.6,319.7,73.9z"/>
	<path class="st3" d="M324.2,79.1c-0.6,0-1,0.4-1,1c0,0.6,0.5,1,1,1c0.6,0,1-0.5,1-1C325.2,79.6,324.7,79.1,324.2,79.1z"/>
	<path class="st3" d="M331.5,80c-1.9,0-3.3-1.5-3.3-3.5c0-2,1.4-3.5,3.3-3.5c1.1,0,1.9,0.4,2.9,1.4l0.4,0.4v-1.9l-0.1-0.1
		c-1-0.8-2-1.2-3.2-1.2c-2.7,0-4.7,2.1-4.7,4.9c0,2.7,2.1,4.7,4.7,4.7c1.2,0,2.2-0.4,3.3-1.3l0.1-0.1V78l-0.4,0.5
		C333.6,79.5,332.7,80,331.5,80z"/>
	<path class="st3" d="M342.8,73c-0.5-0.8-1.5-1.3-2.6-1.3c-1,0-1.7,0.3-2.4,1v-7.6h-1.4v16h1.4v-4.8c0-2.2,0.7-3.3,2.3-3.3
		c1.1,0,1.8,0.4,1.8,2.4V81h1.4v-5.7C343.3,74.2,343.2,73.5,342.8,73z"/>
</g>
</svg>
