<?xml version="1.0" encoding="UTF-8" standalone="no"?>
<!-- Generator: Adobe Illustrator 27.8.1, SVG Export Plug-In . SVG Version: 6.00 Build 0)  -->

<svg
   version="1.1"
   id="Ebene_1"
   x="0px"
   y="0px"
   viewBox="0 0 386.46 125.30806"
   xml:space="preserve"
   width="386.45999"
   height="125.30805"
   xmlns="http://www.w3.org/2000/svg"
   xmlns:svg="http://www.w3.org/2000/svg"><defs
   id="defs55" />
<style
   type="text/css"
   id="style2">
	.st0{fill:#80CC28;}
	.st1{fill:#FFFFFF;stroke:#FFFFFF;stroke-width:0.25;stroke-miterlimit:10;}
	.st2{fill:#4A6FAE;}
	.st3{fill:#FFFFFF;}
</style>
<path
   class="st0"
   d="m 65.46,76.658063 c 0,0 -1.7,2.4 -3.2,3.6 0,0 0.9,1.4 2.1,2 0.4,0.2 1.9,1.1 2.7,2.7 0.8,1.6 1,3.8 0,5.7 -1,1.8 -2.4,2.9 -3.7,3.2 -1.3,0.4 -2.2,0.6 -4.5,-0.1 0,0 -1.6,2.3 -2.1,2.6 0,0 0,0.8 0.1,1 0,0 2.6,0.3 4.3,2.2 1.7,1.899997 1.5,3.999997 1.2,5.399997 h 303.9 V 76.558063 Z"
   id="path4" />
<g
   id="g10"
   transform="translate(16.76,17.558062)">
	<path
   class="st1"
   d="m 220.3,79.3 h -1.1 V 68.2 h 1.1 v 5.7 c 0.7,-0.9 1.7,-1 2.2,-1 2,0 3.1,1.6 3.1,3.4 0,1.7 -1.1,3.3 -3,3.3 -1,0 -1.7,-0.5 -2.2,-1.1 v 0.8 z m 4.1,-3.1 c 0,-1.6 -1.1,-2.4 -2.1,-2.4 -1,0 -2.1,0.8 -2.1,2.4 0,1.3 0.8,2.4 2.1,2.4 1.3,-0.1 2.1,-1.1 2.1,-2.4 z"
   id="path6" />
	<path
   class="st1"
   d="M 229.2,78.7 226.3,73 h 1.3 l 2.2,4.5 2.1,-4.5 h 1.2 l -4.7,9.8 h -1.2 z"
   id="path8" />
</g>
<g
   id="text920_00000064334255281760154400000002193684570966762940_"
   transform="translate(16.76,17.558062)">
	<path
   id="path829_00000059267823428671167260000002160612284820173706_"
   class="st2"
   d="m 90.8,28.8 c 0,1.7 -0.2,3.3 -0.5,4.8 -0.3,1.5 -0.8,2.9 -1.5,4.3 -0.6,1.3 -1.4,2.5 -2.3,3.7 -0.9,1.1 -2,2.1 -3.2,2.9 l 9.5,10.3 H 87 c -0.8,0 -1.6,-0.1 -2.2,-0.3 -0.7,-0.2 -1.3,-0.6 -1.8,-1.2 l -5.5,-6 c -0.9,0.2 -1.8,0.4 -2.7,0.5 -0.9,0.1 -1.9,0.2 -2.9,0.2 -2.8,0 -5.4,-0.5 -7.7,-1.4 -2.3,-1 -4.3,-2.3 -6,-4 -1.6,-1.7 -2.9,-3.7 -3.8,-6 C 53.5,34.3 53,31.7 53,29 c 0,-2.7 0.5,-5.3 1.4,-7.6 0.9,-2.3 2.2,-4.4 3.8,-6.1 1.7,-1.7 3.7,-3 6,-4 2.3,-1 4.9,-1.4 7.7,-1.4 2.8,0 5.4,0.5 7.7,1.4 2.3,0.9 4.3,2.3 6,4 1.6,1.7 2.9,3.7 3.8,6 1,2.3 1.4,4.8 1.4,7.5 z m -7.1,0 c 0,-2 -0.3,-3.9 -0.8,-5.5 -0.5,-1.6 -1.3,-3 -2.3,-4.1 -1,-1.1 -2.3,-2 -3.7,-2.6 -1.4,-0.6 -3.1,-0.9 -4.9,-0.9 -1.8,0 -3.5,0.3 -5,0.9 -1.5,0.6 -2.7,1.5 -3.7,2.6 -1,1.1 -1.8,2.5 -2.3,4.1 -0.5,1.6 -0.8,3.4 -0.8,5.5 0,2.1 0.3,3.9 0.8,5.5 0.5,1.6 1.3,3 2.3,4.1 1,1.1 2.3,2 3.7,2.6 1.5,0.6 3.1,0.9 4.9,0.9 1.8,0 3.5,-0.3 4.9,-0.9 1.5,-0.6 2.7,-1.5 3.7,-2.6 1,-1.1 1.8,-2.5 2.3,-4.1 0.6,-1.6 0.9,-3.4 0.9,-5.5 z" />
	<path
   id="path831_00000005232047377027711170000003570186631751119286_"
   class="st2"
   d="m 120.8,10.2 v 5.5 h -16.5 v 11 h 13.9 v 5.5 h -13.9 v 15.2 h -7 V 10.2 Z" />
	<path
   id="path833_00000080909606428352336580000003425736476525948839_"
   class="st2"
   d="m 133.7,21 v 26.4 h -6.4 V 21 Z m 1,-7.7 c 0,0.5 -0.1,1.1 -0.3,1.5 -0.2,0.5 -0.5,0.9 -0.9,1.3 -0.4,0.4 -0.8,0.7 -1.3,0.9 -0.5,0.2 -1,0.3 -1.6,0.3 -0.5,0 -1.1,-0.1 -1.6,-0.3 -0.5,-0.2 -0.9,-0.5 -1.3,-0.9 -0.4,-0.4 -0.7,-0.8 -0.9,-1.3 -0.2,-0.5 -0.3,-1 -0.3,-1.5 0,-0.6 0.1,-1.1 0.3,-1.6 0.2,-0.5 0.5,-0.9 0.9,-1.3 0.4,-0.4 0.8,-0.6 1.3,-0.9 0.5,-0.2 1,-0.3 1.6,-0.3 0.6,0 1.1,0.1 1.6,0.3 0.5,0.2 0.9,0.5 1.3,0.9 0.4,0.4 0.7,0.8 0.9,1.3 0.1,0.5 0.3,1.1 0.3,1.6 z" />
	<path
   id="path835_00000016783742133611862180000000975252101212977590_"
   class="st2"
   d="m 152.8,20.6 c 1.7,0 3.2,0.3 4.6,0.8 1.4,0.5 2.6,1.3 3.6,2.3 1,1 1.8,2.3 2.4,3.8 0.6,1.5 0.9,3.2 0.9,5.1 0,0.5 0,0.9 -0.1,1.2 0,0.3 -0.1,0.6 -0.2,0.7 -0.1,0.2 -0.2,0.3 -0.4,0.4 -0.2,0.1 -0.4,0.1 -0.7,0.1 h -16.3 c 0.2,2.7 0.9,4.7 2.2,6 1.3,1.3 3,1.9 5.1,1.9 1,0 1.9,-0.1 2.7,-0.4 0.8,-0.2 1.4,-0.5 2,-0.8 0.6,-0.3 1.1,-0.6 1.5,-0.8 0.4,-0.2 0.8,-0.4 1.2,-0.4 0.3,0 0.5,0.1 0.7,0.2 0.2,0.1 0.4,0.2 0.5,0.4 l 1.9,2.3 c -0.7,0.8 -1.5,1.5 -2.4,2.1 -0.9,0.5 -1.8,1 -2.8,1.3 -0.9,0.3 -1.9,0.6 -2.9,0.7 -1,0.1 -1.9,0.2 -2.9,0.2 -1.8,0 -3.5,-0.3 -5.1,-0.9 -1.6,-0.6 -3,-1.5 -4.1,-2.7 -1.2,-1.2 -2.1,-2.7 -2.8,-4.4 -0.7,-1.8 -1,-3.8 -1,-6.1 0,-1.8 0.3,-3.5 0.9,-5.1 0.6,-1.6 1.4,-3 2.5,-4.1 1.1,-1.2 2.4,-2.1 4,-2.8 1.3,-0.6 3.1,-1 5,-1 z m 0.2,4.6 c -1.9,0 -3.3,0.5 -4.4,1.6 -1,1 -1.7,2.5 -2,4.5 h 12 c 0,-0.8 -0.1,-1.6 -0.3,-2.3 -0.2,-0.7 -0.6,-1.4 -1,-1.9 -0.5,-0.5 -1,-1 -1.8,-1.3 -0.8,-0.5 -1.6,-0.6 -2.5,-0.6 z" />
	<path
   id="path837_00000168084551061311334200000008603569510162855563_"
   class="st2"
   d="m 177.3,9.2 v 38.3 h -6.4 V 9.2 Z" />
	<path
   id="path839_00000012439558801585164490000001147337942818534560_"
   class="st2"
   d="m 204.1,47.5 c -0.8,0 -1.4,-0.4 -1.6,-1.2 L 202,43.7 c -0.5,0.6 -1.1,1.2 -1.7,1.7 -0.6,0.5 -1.3,0.9 -2,1.3 -0.7,0.4 -1.4,0.6 -2.2,0.8 -0.8,0.2 -1.6,0.3 -2.6,0.3 -1.4,0 -2.8,-0.3 -4,-0.9 -1.2,-0.6 -2.2,-1.5 -3.1,-2.6 -0.9,-1.2 -1.5,-2.6 -2,-4.3 -0.5,-1.7 -0.7,-3.6 -0.7,-5.8 0,-2 0.3,-3.8 0.8,-5.5 0.5,-1.7 1.3,-3.1 2.3,-4.4 1,-1.2 2.2,-2.2 3.6,-2.9 1.4,-0.7 3,-1.1 4.7,-1.1 1.5,0 2.7,0.2 3.8,0.7 1,0.5 2,1.1 2.8,1.9 v -14 h 6.4 v 38.3 h -4 z m -8.5,-4.7 c 1.3,0 2.4,-0.3 3.4,-0.8 0.9,-0.5 1.8,-1.3 2.6,-2.3 V 27.8 c -0.7,-0.9 -1.5,-1.5 -2.4,-1.9 -0.8,-0.4 -1.8,-0.5 -2.7,-0.5 -1,0 -1.8,0.2 -2.6,0.5 -0.8,0.4 -1.4,0.9 -2,1.6 -0.5,0.7 -0.9,1.6 -1.2,2.8 -0.3,1.1 -0.4,2.4 -0.4,4 0,1.5 0.1,2.9 0.4,3.9 0.3,1.1 0.6,1.9 1.1,2.6 0.5,0.7 1,1.2 1.7,1.5 0.5,0.3 1.3,0.5 2.1,0.5 z" />
	<path
   id="path841_00000031930415880065775110000004895681770875907756_"
   class="st2"
   d="m 241.9,38.7 c 0.4,0 0.7,0.1 1,0.4 l 2.7,3 c -1.5,1.9 -3.4,3.3 -5.6,4.3 -2.2,1 -4.8,1.5 -7.9,1.5 -2.8,0 -5.3,-0.5 -7.5,-1.4 -2.2,-0.9 -4.1,-2.3 -5.6,-3.9 -1.6,-1.7 -2.8,-3.7 -3.6,-6 -0.8,-2.3 -1.2,-4.9 -1.2,-7.7 0,-2.8 0.5,-5.4 1.4,-7.7 0.9,-2.3 2.2,-4.3 3.9,-6 1.7,-1.7 3.7,-3 6,-3.9 2.4,-0.9 4.9,-1.4 7.8,-1.4 2.8,0 5.2,0.4 7.2,1.3 2.1,0.9 3.9,2 5.3,3.5 l -2.3,3.2 c -0.1,0.2 -0.3,0.4 -0.5,0.5 -0.2,0.2 -0.5,0.2 -0.9,0.2 -0.4,0 -0.8,-0.2 -1.2,-0.5 -0.4,-0.3 -0.9,-0.6 -1.6,-1 -0.6,-0.4 -1.4,-0.7 -2.4,-1 -1,-0.3 -2.2,-0.5 -3.7,-0.5 -1.8,0 -3.4,0.3 -4.8,0.9 -1.5,0.6 -2.7,1.5 -3.8,2.6 -1,1.1 -1.9,2.5 -2.5,4.1 -0.6,1.6 -0.9,3.4 -0.9,5.5 0,2.1 0.3,4 0.9,5.6 0.6,1.6 1.4,3 2.4,4.1 1,1.1 2.2,2 3.6,2.6 1.4,0.6 2.9,0.9 4.4,0.9 0.9,0 1.8,-0.1 2.6,-0.2 0.8,-0.1 1.5,-0.3 2.1,-0.5 0.7,-0.2 1.3,-0.5 1.8,-0.9 0.6,-0.4 1.2,-0.8 1.7,-1.3 0.2,-0.2 0.4,-0.3 0.5,-0.4 0.2,0.1 0.4,0.1 0.7,0.1 z" />
	<path
   id="path843_00000016070040524063179940000009279748383942636694_"
   class="st2"
   d="m 258.2,9.2 v 38.3 h -6.4 V 9.2 Z" />
	<path
   id="path845_00000069395138131730399100000009135276277532254124_"
   class="st2"
   d="m 277.8,20.6 c 2,0 3.8,0.3 5.4,1 1.6,0.6 3,1.5 4.1,2.7 1.1,1.2 2,2.6 2.6,4.3 0.6,1.7 0.9,3.6 0.9,5.6 0,2.1 -0.3,4 -0.9,5.7 -0.6,1.7 -1.5,3.1 -2.6,4.3 -1.1,1.2 -2.5,2.1 -4.1,2.7 -1.6,0.6 -3.4,1 -5.4,1 -2,0 -3.8,-0.3 -5.4,-1 -1.6,-0.7 -3,-1.5 -4.1,-2.7 -1.1,-1.2 -2,-2.6 -2.7,-4.3 -0.6,-1.7 -0.9,-3.6 -0.9,-5.7 0,-2.1 0.3,-4 0.9,-5.6 0.6,-1.7 1.5,-3.1 2.7,-4.3 1.2,-1.2 2.5,-2.1 4.1,-2.7 1.6,-0.6 3.4,-1 5.4,-1 z m 0,22.4 c 2.2,0 3.8,-0.7 4.9,-2.2 1.1,-1.5 1.6,-3.6 1.6,-6.5 0,-2.9 -0.5,-5 -1.6,-6.5 -1,-1.5 -2.7,-2.2 -4.9,-2.2 -2.2,0 -3.9,0.8 -4.9,2.3 -1.1,1.5 -1.6,3.7 -1.6,6.5 0,2.8 0.5,5 1.6,6.5 1,1.3 2.6,2.1 4.9,2.1 z" />
	<path
   id="path847_00000040551809475544451260000006739495346926027688_"
   class="st2"
   d="m 302.6,21 v 16.8 c 0,1.6 0.4,2.9 1.1,3.8 0.8,0.9 1.9,1.3 3.4,1.3 1.1,0 2.1,-0.2 3.1,-0.7 1,-0.5 1.9,-1.2 2.7,-2 V 21 h 6.4 v 26.4 h -3.9 c -0.8,0 -1.4,-0.4 -1.6,-1.2 l -0.4,-2.1 c -0.5,0.5 -1.1,1.1 -1.7,1.5 -0.6,0.4 -1.2,0.8 -1.9,1.2 -0.7,0.3 -1.4,0.5 -2.1,0.7 -0.8,0.2 -1.6,0.3 -2.4,0.3 -1.4,0 -2.7,-0.2 -3.8,-0.7 -1.1,-0.5 -2,-1.2 -2.8,-2.1 -0.8,-0.9 -1.3,-1.9 -1.7,-3.2 -0.4,-1.2 -0.6,-2.6 -0.6,-4.1 V 21 Z" />
	<path
   id="path849_00000033347017298016849630000005042898621263074198_"
   class="st2"
   d="m 345.7,47.5 c -0.8,0 -1.4,-0.4 -1.6,-1.2 l -0.5,-2.6 c -0.5,0.6 -1.1,1.2 -1.7,1.7 -0.6,0.5 -1.3,0.9 -2,1.3 -0.7,0.4 -1.4,0.6 -2.2,0.8 -0.8,0.2 -1.6,0.3 -2.6,0.3 -1.4,0 -2.8,-0.3 -4,-0.9 -1.2,-0.6 -2.2,-1.5 -3.1,-2.6 -0.9,-1.2 -1.5,-2.6 -2,-4.3 -0.5,-1.7 -0.7,-3.6 -0.7,-5.8 0,-2 0.3,-3.8 0.8,-5.5 0.5,-1.7 1.3,-3.1 2.3,-4.4 1,-1.2 2.2,-2.2 3.6,-2.9 1.4,-0.7 3,-1.1 4.7,-1.1 1.5,0 2.7,0.2 3.8,0.7 1,0.5 2,1.1 2.8,1.9 v -14 h 6.4 v 38.3 h -4 z m -8.5,-4.7 c 1.3,0 2.4,-0.3 3.4,-0.8 0.9,-0.5 1.8,-1.3 2.6,-2.3 V 27.8 c -0.7,-0.9 -1.5,-1.5 -2.4,-1.9 -0.8,-0.4 -1.8,-0.5 -2.7,-0.5 -1,0 -1.8,0.2 -2.6,0.5 -0.8,0.4 -1.4,0.9 -2,1.6 -0.5,0.7 -0.9,1.6 -1.2,2.8 -0.3,1.1 -0.4,2.4 -0.4,4 0,1.5 0.1,2.9 0.4,3.9 0.3,1.1 0.6,1.9 1.1,2.6 0.5,0.7 1,1.2 1.7,1.5 0.6,0.3 1.3,0.5 2.1,0.5 z" />
</g>
<g
   id="g1069_00000085251670631660793760000006017339812299984522_"
   transform="translate(-182.6,-35.705726)">
	<path
   id="path922_00000123428056039517114220000000814832855410108043_"
   class="st2"
   d="m 223.4,92.5 c 0,-1.7 -1.4,-3.1 -3.1,-3.1 -1.7,0 -3.1,1.4 -3.1,3.1 0,1.7 1.4,3.1 3.1,3.1 0,0 0,0 0,0 1.7,-0.1 3.1,-1.4 3.1,-3.1 z" />
	<path
   id="path924_00000169546059315946119690000013374670235560709505_"
   class="st2"
   d="m 228.3,92.5 c 0,1.7 1.4,3.1 3.1,3.1 1.7,0 3.1,-1.4 3.1,-3.1 0,-1.7 -1.4,-3.1 -3.1,-3.1 -1.7,0 -3.1,1.4 -3.1,3.1 z" />
	<path
   id="path926_00000032610737412087877200000005796516376633461383_"
   class="st2"
   d="m 203.4,103.8 c 0.9,2.3 2.2,4.4 3.7,6.3 4.6,5.5 11.5,8.7 18.7,8.7 6.6,0 12.9,-2.6 17.6,-7.3 2.5,-2.7 4.4,-5.9 5.6,-9.4 0.1,-0.4 -0.1,-0.9 -0.5,-1 -0.2,-0.1 -0.5,0 -0.6,0.1 -6.6,3.7 -15,1.4 -18.7,-5.2 -3.7,-6.6 -1.4,-15 5.2,-18.7 1.2,-0.7 2.5,-1.2 3.9,-1.5 0.4,-0.1 0.7,-0.5 0.6,-1 0,-0.2 -0.2,-0.4 -0.4,-0.5 -2.3,-1.4 -4.9,-2.4 -7.5,-3 -0.8,-3.4 -1.9,-5.4 -3,-7.2 -1.2,-2 -2.5,-3.9 -4,-5.7 -0.5,-0.9 -1.2,-1.7 -2.2,-2.1 -2.1,-1.1 -4.4,-0.6 -5.2,0.9 -0.8,1.6 0.2,3.7 2.3,4.8 0.1,0.1 0.2,0.1 0.4,0.2 v 0 c 0.5,0.2 0.9,0.3 1.4,0.4 1.2,0.4 2.4,1.1 3.3,2 1.1,1 3.2,4.5 3.4,6.4 -0.5,0 -1,0 -1.5,0 -0.7,0 -1.4,0 -2.2,0.1 -2.1,-2.7 -3.8,-4.6 -5.5,-5.9 -1.8,-1.5 -4.2,-3.2 -5.1,-3.6 v 0 c -0.8,-0.5 -1.7,-0.7 -2.7,-0.7 -2.3,0 -4.2,1.4 -4.2,3.2 0,1.8 1.9,3.2 4.2,3.2 0.3,0 0.7,0 1,-0.1 v 0 0 c 0.3,-0.1 0.7,-0.2 1,-0.3 0.7,-0.2 1.5,-0.2 2.2,0 1.4,0.4 5.7,3.5 5.3,4.9 -2.4,0.6 -4.6,1.5 -6.7,2.8 -0.4,0.2 -0.5,0.7 -0.3,1.1 0.1,0.2 0.3,0.3 0.5,0.4 7.4,1.6 12.2,8.9 10.6,16.3 -1.6,7.4 -8.9,12.2 -16.3,10.6 -1.4,-0.3 -2.7,-0.8 -3.9,-1.5 -0.4,-0.2 -0.9,-0.1 -1.1,0.3 -0.1,0.1 -0.1,0.2 -0.1,0.3 0.3,0.4 0.5,1.1 0.8,1.7 z" />
	<path
   id="path928_00000119833158567676717580000000750098117875155089_"
   class="st2"
   d="m 239.2,136.9 c -0.2,0 -1.5,-0.1 -1.5,-0.1 -2,-0.2 -2.6,-4.9 -2.7,-6.6 1.2,-0.9 2.2,-2 3,-3.1 -7.7,3.6 -16.6,3.7 -24.4,0.2 0.8,1.1 1.8,2.1 2.9,3 -0.1,1.7 -0.7,6.3 -2.7,6.6 0,0 -1.2,0 -1.5,0.1 -1.2,0.3 -2,1 -2,1.9 0,1.1 1.3,2 2.9,2 0,0 3.5,0.3 4.3,-0.3 0.8,-0.6 1.2,-1.2 1,-4.1 -0.1,-2.9 2.4,-3.6 2.5,-3.8 1.5,0.5 3,4 4.6,4 1.6,0 3.2,-3.5 4.6,-4 0.1,0.1 2.7,0.9 2.5,3.8 -0.1,2.9 0.3,3.4 1,4.1 0.7,0.7 4.3,0.3 4.3,0.3 1.6,0 2.9,-0.9 2.9,-2 0.4,-1 -0.5,-1.8 -1.7,-2 z" />
	<path
   id="path930_00000042015687529386357900000010489459146696278921_"
   class="st2"
   d="m 245.3,121.4 v 0 0 c -0.1,0 -0.1,-0.1 -0.2,-0.1 -2.1,-1.3 -3.2,-2.6 -3.8,-3.6 -9.2,7 -21.9,7 -31.2,0.1 -0.6,1 -1.7,2.3 -3.7,3.5 0,0 -0.1,0.1 -0.1,0.1 v 0 0 c -1,0.7 -1.4,2 -0.7,3.1 0.7,1 2,1.4 3.1,0.7 0.5,-0.3 0.8,-0.8 1,-1.3 0.2,-0.6 0.4,-1.4 0.8,-2.3 l 0.6,0.3 c 4.1,2.6 9.8,4.3 14.6,4.3 5.1,0 10.7,-1.8 14.9,-4.6 l 0.4,-0.3 c 0.4,0.8 0.7,1.7 0.9,2.6 0.3,1.2 1.5,1.9 2.7,1.6 1.2,-0.3 1.9,-1.5 1.6,-2.7 -0.1,-0.6 -0.4,-1.1 -0.9,-1.4 z" />
</g>
<g
   id="g50"
   transform="translate(16.76,17.558062)">
	<path
   class="st3"
   d="m 246.5,66.1 c 0,0 0,0 0,0 -4.2,0 -7.6,3.4 -7.6,7.7 0,4.2 3.4,7.6 7.6,7.6 4.2,0 7.6,-3.4 7.6,-7.6 0,-2 -0.8,-3.9 -2.2,-5.4 -1.4,-1.5 -3.4,-2.3 -5.4,-2.3 z m 5,7.6 c 0,2.8 -2.2,5 -5,5 -2.8,0 -5,-2.2 -5,-5 0,-2.9 2.1,-5.1 5,-5.1 2.8,0 5,2.2 5,5.1 z"
   id="path30" />
	<path
   class="st3"
   d="m 258.8,66.4 h -2.7 V 81 h 2.6 v -5.7 h 0.7 c 3,0 5,-1.7 5,-4.5 0,-1.4 -0.6,-2.7 -1.6,-3.5 -0.9,-0.7 -1.8,-0.9 -4,-0.9 z m 3.2,4.4 c 0,1.4 -0.8,2 -2.7,2 h -0.5 v -3.9 h 0.4 c 2.5,0 2.8,1 2.8,1.9 z"
   id="path32" />
	<polygon
   class="st3"
   points="268.7,74.3 274.1,74.3 274.1,71.8 268.7,71.8 268.7,68.9 274.3,68.9 274.3,66.4 266,66.4 266,81 274.3,81 274.3,78.5 268.7,78.5 "
   id="polygon34" />
	<polygon
   class="st3"
   points="279.1,71.5 289.3,82.3 289.3,66.4 286.7,66.4 286.7,75.8 276.5,65 276.5,81 279.1,81 "
   id="polygon36" />
	<path
   class="st3"
   d="m 299.6,75.1 h 4.9 c -0.1,1 -0.2,1.6 -0.6,2.2 -0.9,1.5 -3,2.6 -4.9,2.6 -3.3,0 -6.1,-2.8 -6.1,-6.1 0,-3.4 2.8,-6.2 6.1,-6.2 1.4,0 2.9,0.5 3.9,1.4 0.4,0.3 0.7,0.7 1.3,1.5 l 0.2,0.2 1.1,-0.9 -0.2,-0.2 c -1.9,-2.4 -3.8,-3.4 -6.3,-3.4 -4.2,0 -7.6,3.4 -7.6,7.6 0,4.1 3.4,7.5 7.5,7.5 2.5,0 5,-1.3 6.2,-3.2 0.7,-1.1 0.9,-2.1 0.9,-4 v -0.3 h -6.4 z"
   id="path38" />
	<rect
   x="308.39999"
   y="66.400002"
   class="st3"
   width="1.4"
   height="14.7"
   id="rect40" />
	<path
   class="st3"
   d="m 319.7,73.9 c -0.7,-0.4 -1.1,-0.6 -2.8,-1.5 -2,-1 -2.3,-1.5 -2.3,-2.5 0,-1.4 1,-2.4 2.4,-2.4 1.1,0 1.8,0.4 2.5,1.6 l 0.2,0.2 1.1,-0.9 -0.1,-0.2 c -0.8,-1.4 -2.1,-2.1 -3.6,-2.1 -2.2,0 -3.9,1.6 -3.9,3.7 0,1.7 0.7,2.5 2.9,3.7 l 1.2,0.6 c 0.6,0.3 1.1,0.6 1.4,0.7 0.8,0.5 1.2,1.1 1.2,1.9 0,1.7 -1.4,3.1 -3.2,3.1 -1.5,0 -2.3,-0.6 -3.1,-2.4 l -0.1,-0.2 -1.2,0.6 0.1,0.2 c 0.9,2.1 2.3,3.2 4.4,3.2 2.5,0 4.6,-2 4.6,-4.4 -0.1,-1.2 -0.7,-2.2 -1.7,-2.9 z"
   id="path42" />
	<path
   class="st3"
   d="m 324.2,79.1 c -0.6,0 -1,0.4 -1,1 0,0.6 0.5,1 1,1 0.6,0 1,-0.5 1,-1 0,-0.5 -0.5,-1 -1,-1 z"
   id="path44" />
	<path
   class="st3"
   d="m 331.5,80 c -1.9,0 -3.3,-1.5 -3.3,-3.5 0,-2 1.4,-3.5 3.3,-3.5 1.1,0 1.9,0.4 2.9,1.4 l 0.4,0.4 v -1.9 l -0.1,-0.1 c -1,-0.8 -2,-1.2 -3.2,-1.2 -2.7,0 -4.7,2.1 -4.7,4.9 0,2.7 2.1,4.7 4.7,4.7 1.2,0 2.2,-0.4 3.3,-1.3 l 0.1,-0.1 V 78 l -0.4,0.5 c -0.9,1 -1.8,1.5 -3,1.5 z"
   id="path46" />
	<path
   class="st3"
   d="m 342.8,73 c -0.5,-0.8 -1.5,-1.3 -2.6,-1.3 -1,0 -1.7,0.3 -2.4,1 v -7.6 h -1.4 v 16 h 1.4 v -4.8 c 0,-2.2 0.7,-3.3 2.3,-3.3 1.1,0 1.8,0.4 1.8,2.4 V 81 h 1.4 v -5.7 c 0,-1.1 -0.1,-1.8 -0.5,-2.3 z"
   id="path48" />
</g>
</svg>
