<?xml version="1.0" encoding="UTF-8"?>
<svg id="Layer_2" data-name="Layer 2" xmlns="http://www.w3.org/2000/svg" viewBox="0 0 595.28 148.82">
  <defs>
    <style>
      .cls-1 {
        fill: #fff;
      }

      .cls-2 {
        fill: #bf1f10;
      }

      .cls-3 {
        fill: #d73408;
      }

      .cls-4 {
        fill: #fab900;
      }

      .cls-5 {
        fill: #f49300;
      }

      .cls-6 {
        fill: #e55900;
      }
    </style>
  </defs>
  <g id="Layer_1-2" data-name="Layer 1">
    <g>
      <path class="cls-4" d="m0,74.41c0,29.06,12.4,55.37,32.44,74.41h156.64c20.05-19.04,32.45-45.35,32.45-74.41S209.13,19.04,189.08,0H32.44C12.4,19.04,0,45.35,0,74.41"/>
      <path class="cls-5" d="m92.88,74.41c0,29.06,12.4,55.37,32.44,74.41h156.64c20.05-19.04,32.44-45.35,32.44-74.41s-12.4-55.37-32.44-74.41H125.32c-20.05,19.04-32.44,45.35-32.44,74.41"/>
      <path class="cls-6" d="m186.87,74.41c0,29.06,12.4,55.37,32.44,74.41h156.64c20.05-19.04,32.45-45.35,32.45-74.41s-12.4-55.37-32.45-74.41h-156.64c-20.05,19.04-32.44,45.35-32.44,74.41"/>
      <path class="cls-3" d="m280.86,74.41c0,29.06,12.4,55.37,32.44,74.41h156.64c20.05-19.04,32.44-45.35,32.44-74.41s-12.4-55.37-32.44-74.41h-156.64c-20.05,19.04-32.44,45.35-32.44,74.41"/>
      <path class="cls-2" d="m374.85,74.41c0,29.06,12.4,55.37,32.44,74.41h155.54c20.04-19.04,32.44-45.35,32.44-74.41s-12.4-55.37-32.44-74.41h-155.54c-20.05,19.04-32.44,45.35-32.44,74.41"/>
      <path class="cls-1" d="m84.43,66.87l-4.15-.55c-8.99-1.2-12.21-3.94-12.21-8.21,0-4.71,3.57-8.1,10.49-8.1,6.45,0,12.21,1.97,18.21,5.69.58.33,1.15.22,1.61-.33l7.03-9.96c.58-.77.46-1.2-.23-1.64-6.57-4.82-16.25-7.77-26.62-7.77-16.94,0-27.77,9.09-27.77,22.77s8.87,20.25,24.77,22.33l4.15.55c9.33,1.2,12.1,3.94,12.1,8.32,0,5.25-4.61,8.87-12.79,8.87s-15.32-3.72-20.51-7.66c-.58-.44-1.27-.44-1.73.11l-8.76,9.52c-.57.66-.35,1.42.12,1.86,6.11,5.58,17.97,10.18,30.19,10.18,20.28,0,30.76-9.96,30.76-23.43s-8.53-20.47-24.66-22.55"/>
      <path class="cls-1" d="m158.91,90.4c-1.73,5.14-5.88,8.21-12.33,8.21s-10.6-3.07-12.33-8.21c-.92-2.63-1.27-6.24-1.27-15.98s.34-13.35,1.27-15.98c1.73-5.14,5.88-8.21,12.33-8.21s10.6,3.07,12.33,8.21c.92,2.63,1.27,6.24,1.27,15.98s-.35,13.35-1.27,15.98m-12.33-54.4c-13.71,0-24.54,6.02-28.57,18.06-1.73,5.14-2.19,9.3-2.19,20.36s.46,15.22,2.19,20.36c4.03,12.04,14.86,18.06,28.57,18.06s24.54-6.02,28.57-18.06c1.73-5.14,2.19-9.3,2.19-20.36s-.46-15.22-2.19-20.36c-4.03-12.04-14.86-18.06-28.57-18.06"/>
      <path class="cls-1" d="m228.3,97.3h-24.03c-.38,0-.69-.29-.69-.66v-58.34c0-.61-.52-1.1-1.15-1.1h-14.63c-.64,0-1.15.49-1.15,1.09v72.24c0,.6.52,1.09,1.15,1.09h35.94c.49,0,.93-.29,1.1-.73l4.56-12.13c.27-.72-.29-1.48-1.1-1.48"/>
      <path class="cls-1" d="m259.84,83.83l8.87-26.05h.35l8.87,26.05h-18.09Zm17.97-45.54c-.23-.66-.69-1.09-1.5-1.09h-14.52c-.81,0-1.27.44-1.5,1.09l-26.96,72.24c-.23.66,0,1.09.81,1.09h15.09c.8,0,1.27-.33,1.5-1.09l4.38-13.02h27.42l4.49,13.02c.23.77.69,1.09,1.5,1.09h14.98c.81,0,1.04-.44.81-1.09l-26.5-72.24Z"/>
      <path class="cls-1" d="m344.07,69.6h-13.83c-.46,0-.69-.22-.69-.66v-17.19c0-.44.23-.66.69-.66h13.83c6.45,0,10.6,3.61,10.6,9.19s-4.15,9.3-10.6,9.3m13.6,11.38c8.64-3.61,13.94-11.16,13.94-20.69,0-13.57-10.6-23.1-26.61-23.1h-31.22c-.69,0-1.15.44-1.15,1.09v72.24c0,.66.46,1.09,1.15,1.09h14.63c.69,0,1.15-.44,1.15-1.09v-26.6c0-.44.23-.66.69-.66h10.49l13.48,27.26c.34.77.69,1.09,1.73,1.09h16.36c.81,0,1.15-.66.81-1.31l-15.44-29.34Z"/>
      <path class="cls-1" d="m441.61,70.26h-26.96c-.69,0-1.15.44-1.15,1.09v10.51c0,.66.46,1.1,1.15,1.1h10.6c.46,0,.69.22.69.66,0,3.17-.35,5.47-.92,7.33-1.61,4.93-6.68,7.66-12.56,7.66-6.8,0-11.06-3.07-12.79-8.21-.92-2.63-1.27-6.24-1.27-15.98s.34-13.24,1.27-15.87c1.73-5.15,5.88-8.32,12.56-8.32s10.37,2.63,13.48,7.66c.23.55.81.77,1.61.55l12.33-4.93c.69-.33.81-.99.46-1.64-3.69-8.98-13.25-15.87-27.88-15.87s-24.77,6.02-28.81,18.06c-1.73,5.14-2.19,9.3-2.19,20.36s.46,15.21,2.19,20.36c4.03,12.04,14.86,18.06,28.81,18.06s24.66-6.68,28.57-18.61c1.38-4.05,1.96-10.18,1.96-16.75v-6.13c0-.66-.46-1.09-1.15-1.09"/>
      <path class="cls-1" d="m471.45,37.2h-14.63c-.69,0-1.15.44-1.15,1.09v72.24c0,.66.46,1.09,1.15,1.09h14.63c.69,0,1.15-.44,1.15-1.09V38.3c0-.66-.46-1.09-1.15-1.09"/>
      <path class="cls-1" d="m520.07,66.87l-4.15-.55c-8.99-1.2-12.21-3.94-12.21-8.21,0-4.71,3.57-8.1,10.49-8.1,6.45,0,12.21,1.97,18.2,5.69.58.33,1.15.22,1.61-.33l7.03-9.96c.58-.77.46-1.2-.23-1.64-6.57-4.82-16.25-7.77-26.62-7.77-16.94,0-27.77,9.09-27.77,22.77s8.87,20.25,24.77,22.33l4.15.55c9.33,1.2,12.1,3.94,12.1,8.32,0,5.25-4.61,8.87-12.79,8.87s-15.32-3.72-20.51-7.66c-.58-.44-1.27-.44-1.73.11l-8.76,9.52c-.58.66-.35,1.42.11,1.86,6.11,5.58,17.97,10.18,30.19,10.18,20.28,0,30.76-9.96,30.76-23.43s-8.53-20.47-24.66-22.55"/>
    </g>
  </g>
</svg>