<?xml version="1.0" encoding="utf-8"?>
<!-- Generator: Adobe Illustrator 15.0.0, SVG Export Plug-In . SVG Version: 6.00 Build 0)  -->
<!DOCTYPE svg PUBLIC "-//W3C//DTD SVG 1.1//EN" "http://www.w3.org/Graphics/SVG/1.1/DTD/svg11.dtd">
<svg version="1.1" id="Ebene_1" xmlns="http://www.w3.org/2000/svg" xmlns:xlink="http://www.w3.org/1999/xlink" x="0px" y="0px"
	 width="558px" height="322px" viewBox="0 0 558 322" enable-background="new 0 0 558 322" xml:space="preserve">
<g>
	<path fill="#222221" d="M65.325,239.371c2.745,9.15,5.483,17.444,8.22,24.883c2.734,7.438,5.43,14.26,8.084,20.462
		c1.955-6.72,3.928-14.631,5.915-23.735c1.988-9.102,3.901-18.725,5.74-28.869h5.724c-1.053,6.1-2.097,11.812-3.138,17.139
		c-1.04,5.326-2.135,10.393-3.285,15.2c-1.149,4.809-2.356,9.417-3.616,13.826c-1.26,4.41-2.635,8.747-4.124,13.015h-6.249
		c-1.34-3.254-2.679-6.505-4.016-9.75s-2.663-6.589-3.98-10.031c-1.316-3.441-2.634-7.038-3.951-10.793
		c-1.318-3.755-2.643-7.739-3.977-11.953c-1.354,4.23-2.693,8.225-4.021,11.984c-1.33,3.762-2.648,7.364-3.957,10.81
		s-2.633,6.789-3.969,10.034c-1.338,3.245-2.705,6.479-4.102,9.699h-6.119c-1.543-4.272-2.957-8.615-4.242-13.031
		c-1.285-4.415-2.484-9.027-3.6-13.836c-1.116-4.809-2.177-9.875-3.182-15.197c-1.006-5.32-2.025-11.025-3.06-17.115h5.978
		c0.883,5.004,1.775,9.913,2.674,14.727c0.899,4.812,1.852,9.467,2.854,13.963c1.003,4.497,2.025,8.752,3.067,12.768
		c1.042,4.017,2.091,7.731,3.146,11.147c2.428-6.315,5.047-13.156,7.852-20.524c2.805-7.367,5.568-15.641,8.293-24.82H65.325z"/>
	<path fill="#222221" d="M111.047,291.291V232.25h5.551v16.172c1.822-0.683,3.672-1.209,5.551-1.579s3.758-0.556,5.637-0.556
		c3.416,0,6.262,0.484,8.539,1.452c2.276,0.969,4.1,2.349,5.465,4.142c1.367,1.793,2.319,3.943,2.861,6.447
		c0.541,2.506,0.811,5.267,0.811,8.283v24.68h-5.551v-22.886c0-3.131-0.213-5.778-0.64-7.942c-0.427-2.162-1.14-3.928-2.135-5.295
		c-0.997-1.365-2.321-2.348-3.972-2.945c-1.651-0.598-3.729-0.896-6.233-0.896c-0.969,0-2.007,0.085-3.116,0.256
		c-1.111,0.171-2.15,0.356-3.117,0.555c-0.969,0.201-1.836,0.414-2.605,0.641c-0.768,0.229-1.268,0.399-1.494,0.513v38.001H111.047z
		"/>
	<path fill="#222221" d="M158.697,269.174c0-3.871,0.555-7.244,1.664-10.119c1.111-2.875,2.562-5.28,4.355-7.217
		c1.793-1.935,3.844-3.373,6.148-4.312c2.307-0.939,4.683-1.408,7.131-1.408c5.408,0,9.721,1.765,12.938,5.294
		c3.216,3.53,4.824,8.967,4.824,16.311c0,0.456-0.014,0.911-0.042,1.366c-0.029,0.457-0.072,0.884-0.128,1.281h-30.999
		c0.171,5.409,1.508,9.564,4.014,12.468c2.505,2.903,6.49,4.355,11.956,4.355c3.016,0,5.407-0.284,7.173-0.854
		c1.764-0.568,3.045-1.053,3.843-1.451l1.024,4.782c-0.798,0.456-2.292,0.996-4.483,1.622s-4.769,0.939-7.729,0.939
		c-3.871,0-7.173-0.57-9.905-1.708c-2.733-1.138-4.982-2.732-6.747-4.782s-3.045-4.483-3.842-7.301
		C159.094,275.621,158.697,272.533,158.697,269.174z M190.037,265.672c-0.115-4.611-1.195-8.197-3.245-10.76
		c-2.05-2.562-4.953-3.842-8.71-3.842c-1.994,0-3.772,0.398-5.338,1.195c-1.566,0.797-2.933,1.865-4.099,3.202
		c-1.167,1.338-2.079,2.89-2.733,4.653c-0.654,1.766-1.039,3.616-1.152,5.551H190.037z"/>
	<path fill="#222221" d="M224.877,246.287c1.821,0,3.545,0.143,5.166,0.428c1.623,0.285,2.746,0.569,3.373,0.854l-1.109,4.782
		c-0.457-0.228-1.381-0.47-2.775-0.726c-1.396-0.256-3.232-0.385-5.509-0.385c-2.391,0-4.312,0.171-5.764,0.513
		c-1.452,0.341-2.406,0.627-2.861,0.854v38.684h-5.55v-42.1c1.422-0.627,3.386-1.267,5.892-1.922
		C218.244,246.615,221.29,246.287,224.877,246.287z"/>
	<path fill="#222221" d="M240.846,269.174c0-3.871,0.556-7.244,1.666-10.119c1.109-2.875,2.562-5.28,4.354-7.217
		c1.794-1.935,3.843-3.373,6.148-4.312s4.683-1.408,7.131-1.408c5.408,0,9.721,1.765,12.938,5.294
		c3.216,3.53,4.825,8.967,4.825,16.311c0,0.456-0.015,0.911-0.043,1.366c-0.029,0.457-0.072,0.884-0.128,1.281h-30.999
		c0.171,5.409,1.508,9.564,4.014,12.468c2.505,2.903,6.49,4.355,11.955,4.355c3.018,0,5.408-0.284,7.174-0.854
		c1.764-0.568,3.045-1.053,3.843-1.451l1.024,4.782c-0.798,0.456-2.292,0.996-4.483,1.622c-2.192,0.626-4.769,0.939-7.728,0.939
		c-3.873,0-7.174-0.57-9.906-1.708s-4.982-2.732-6.746-4.782c-1.766-2.05-3.047-4.483-3.843-7.301
		C241.244,275.621,240.846,272.533,240.846,269.174z M272.187,265.672c-0.115-4.611-1.195-8.197-3.245-10.76
		c-2.05-2.562-4.953-3.842-8.71-3.842c-1.994,0-3.772,0.398-5.338,1.195c-1.566,0.797-2.933,1.865-4.099,3.202
		c-1.168,1.338-2.079,2.89-2.732,4.653c-0.655,1.766-1.04,3.616-1.153,5.551H272.187z"/>
	<path fill="#222221" d="M331.791,263.281h5.808v26.388c-1.082,0.456-3.203,1.039-6.362,1.75c-3.16,0.711-7.045,1.067-11.656,1.067
		c-3.872,0-7.459-0.683-10.76-2.049c-3.303-1.367-6.163-3.344-8.583-5.936c-2.42-2.59-4.312-5.807-5.679-9.649
		s-2.049-8.241-2.049-13.194s0.739-9.35,2.22-13.193c1.479-3.843,3.486-7.059,6.021-9.649c2.532-2.59,5.479-4.569,8.839-5.935
		c3.358-1.367,6.944-2.05,10.76-2.05c4.383,0,7.997,0.47,10.845,1.409c2.847,0.939,4.924,1.836,6.234,2.689l-1.965,4.953
		c-1.594-1.139-3.757-2.062-6.489-2.775c-2.733-0.711-5.693-1.067-8.882-1.067c-2.961,0-5.751,0.542-8.368,1.622
		c-2.619,1.082-4.897,2.705-6.832,4.868c-1.936,2.164-3.458,4.839-4.568,8.026c-1.11,3.189-1.665,6.89-1.665,11.102
		c0,3.929,0.455,7.473,1.366,10.632c0.91,3.16,2.291,5.864,4.142,8.113c1.85,2.249,4.142,3.971,6.874,5.166s5.893,1.794,9.479,1.794
		c2.903,0,5.337-0.156,7.301-0.47c1.964-0.312,3.288-0.611,3.971-0.897V263.281z"/>
	<path fill="#222221" d="M367.486,246.287c1.821,0,3.544,0.143,5.166,0.428c1.623,0.285,2.746,0.569,3.373,0.854l-1.11,4.782
		c-0.456-0.228-1.381-0.47-2.775-0.726c-1.396-0.256-3.231-0.385-5.508-0.385c-2.391,0-4.312,0.171-5.764,0.513
		c-1.452,0.341-2.406,0.627-2.861,0.854v38.684h-5.551v-42.1c1.423-0.627,3.387-1.267,5.893-1.922
		C360.854,246.615,363.899,246.287,367.486,246.287z"/>
	<path fill="#222221" d="M423.762,269.259c0,3.474-0.499,6.633-1.495,9.479s-2.391,5.266-4.185,7.258
		c-1.793,1.994-3.914,3.544-6.361,4.654c-2.448,1.11-5.153,1.665-8.112,1.665c-2.961,0-5.666-0.555-8.113-1.665
		c-2.448-1.11-4.568-2.66-6.361-4.654c-1.794-1.992-3.189-4.411-4.185-7.258c-0.997-2.847-1.495-6.006-1.495-9.479
		c0-3.472,0.498-6.632,1.495-9.479c0.995-2.846,2.391-5.279,4.185-7.301c1.793-2.02,3.913-3.586,6.361-4.697
		c2.447-1.109,5.152-1.664,8.113-1.664c2.959,0,5.664,0.555,8.112,1.664c2.447,1.111,4.568,2.678,6.361,4.697
		c1.794,2.021,3.188,4.455,4.185,7.301C423.263,262.627,423.762,265.787,423.762,269.259z M417.869,269.259
		c0-5.521-1.281-9.919-3.843-13.193c-2.562-3.272-6.035-4.91-10.418-4.91c-4.385,0-7.856,1.638-10.419,4.91
		c-2.562,3.274-3.843,7.672-3.843,13.193c0,5.522,1.281,9.906,3.843,13.151c2.562,3.245,6.034,4.867,10.419,4.867
		c4.383,0,7.855-1.622,10.418-4.867C416.588,279.165,417.869,274.781,417.869,269.259z"/>
	<path fill="#222221" d="M471.411,289.754c-1.652,0.456-3.872,0.969-6.661,1.537c-2.79,0.568-6.206,0.854-10.247,0.854
		c-3.303,0-6.063-0.484-8.283-1.451c-2.221-0.968-4.014-2.334-5.38-4.099s-2.349-3.899-2.946-6.405
		c-0.598-2.504-0.896-5.265-0.896-8.283v-24.765h5.551v22.972c0,3.131,0.227,5.778,0.683,7.941c0.455,2.164,1.195,3.915,2.221,5.252
		c1.024,1.338,2.348,2.306,3.971,2.903c1.622,0.598,3.6,0.896,5.935,0.896c2.618,0,4.896-0.142,6.832-0.427
		c1.935-0.284,3.159-0.54,3.672-0.769v-38.77h5.551V289.754z"/>
	<path fill="#222221" d="M493.355,307.089h-5.551v-58.41c1.65-0.568,3.758-1.11,6.319-1.622c2.562-0.513,5.807-0.77,9.735-0.77
		c3.245,0,6.191,0.527,8.839,1.58c2.646,1.055,4.923,2.576,6.831,4.568c1.907,1.994,3.387,4.413,4.44,7.26
		c1.053,2.847,1.653,6.063,1.58,9.649c-0.062,3.08-0.689,6.405-1.315,8.468c-0.688,2.266-1.526,4.17-3.062,6.5
		c-1.391,2.109-3.844,4.141-6.642,5.521c-2.057,1.016-5.011,1.941-8.396,2.174c-3.583,0.246-8.535-0.128-12.779-1.533V307.089z
		 M493.355,285.344c1.913,0.83,6.251,1.898,12.088,1.781c2.011-0.04,4.534-0.592,6.583-1.75c2.194-1.24,3.874-3.134,4.666-4.5
		c1.834-3.166,2.834-6.834,2.965-11.53c0.162-5.806-1.451-10.261-4.354-13.364c-2.904-3.104-6.747-4.654-11.528-4.654
		c-2.733,0-4.94,0.128-6.618,0.384c-1.681,0.257-2.946,0.527-3.801,0.812V285.344z"/>
</g>
<g>
	<path fill="#B1093D" d="M350.68,152.348c-22.209,1.064-33.42-30.603-34.958-48.253c-1.279-14.683,5.019-40.475,24.849-32.024
		c2.264,0.967,4.329,2.474,6.207,4.042c-8.036-13.292-18.835-24.512-31.826-33.024c1.64,2.062,3.202,4.315,4.214,6.766
		c8.177,19.773-14.799,27.338-30.48,25.815c-18.911-1.835-49.195-14.683-49.092-37.411c0.012-2.309,0.808-4.651,1.937-6.639
		c-16.742,5.232-31.087,15.444-41.45,29.601c4.478-1.777,9.269-3.124,14.093-3.495c25.923-2.002,49.167,16.771,49.728,43.444
		c0.62,29.526-25.131,53.781-54.05,54.028c-4.683,0.039-9.434-0.908-13.867-2.356c9.939,18.387,24.965,33.189,43.575,42.723
		c-0.942-3.548-1.575-7.294-1.516-10.976c0.454-28.435,24.7-53.978,53.687-53.627c25.717,0.315,43.104,22.729,40.426,47.547
		c-0.359,3.327-1.253,6.63-2.328,9.79c12.21-9.843,21.126-22.78,26.168-37.618C354.389,151.566,352.528,152.26,350.68,152.348z"/>
	<path fill="#B1093D" d="M287.491,63.194c9.785,1.076,26.347-3.262,20.92-16.377c-4.523-10.938-17.972-17.116-28.938-19.044
		c-8.354-1.47-24.725-0.734-24.604,11.139C255.021,53.569,275.432,61.867,287.491,63.194z"/>
</g>
</svg>
